<svg width="1277" height="44" viewBox="0 0 1277 44" fill="none" xmlns="http://www.w3.org/2000/svg">
<path d="M2.052 23H0.42V21.14H2.052V23Z" fill="black"/>
<path d="M22.332 26H18.672V17.96H22.332C24.828 17.96 26.4 19.496 26.4 21.98C26.4 24.464 24.828 26 22.332 26ZM22.332 19.124H19.956V24.836H22.332C24.192 24.836 25.032 24.044 25.032 21.98C25.032 19.916 24.192 19.124 22.332 19.124ZM35.2976 26H28.8656V17.96H35.2976V19.124H30.1616V21.38H35.1176V22.532H30.1616V24.836H35.2976V26ZM41.179 26.12C38.779 26.12 37.555 25.064 37.555 23.372V23.3H38.851V23.492C38.851 24.452 39.415 24.932 41.179 24.932C42.715 24.932 43.255 24.596 43.255 23.84C43.255 23.144 42.847 22.88 41.827 22.688L39.859 22.364C38.503 22.124 37.543 21.5 37.543 20.18C37.543 19.016 38.503 17.84 40.999 17.84C43.351 17.84 44.419 19.016 44.419 20.588V20.66H43.135V20.504C43.135 19.52 42.547 19.028 40.879 19.028C39.415 19.028 38.839 19.388 38.839 20.108C38.839 20.804 39.247 21.032 40.195 21.236L42.151 21.572C43.759 21.86 44.551 22.592 44.551 23.768C44.551 24.992 43.555 26.12 41.179 26.12ZM48.2671 26H46.9711V17.96H48.2671V26ZM54.6632 26.12C52.2992 26.12 50.7272 24.488 50.7272 21.98C50.7272 19.472 52.4192 17.84 54.9872 17.84C57.2672 17.84 58.8512 18.992 58.8512 20.852V20.948H57.4232V20.852C57.4232 19.7 56.6192 19.076 54.9512 19.076C53.0192 19.076 52.0952 19.976 52.0952 21.98C52.0952 23.984 53.0072 24.872 54.8912 24.872C56.8112 24.872 57.5672 24.344 57.5672 22.988V22.88H54.5912V21.896H58.8512V26H57.6752V24.26H57.5912C57.2552 25.436 56.2352 26.12 54.6632 26.12ZM62.7398 26H61.4438V17.96H62.8358L66.4358 22.664L67.4798 24.164H67.5758L67.5158 22.712V17.96H68.8118V26H67.4198L63.7958 21.308L62.7878 19.892H62.6918L62.7398 21.284V26Z" fill="black"/>
<path d="M87.052 23H85.42V21.14H87.052V23Z" fill="black"/>
<path d="M107.332 26H103.672V17.96H107.332C109.828 17.96 111.4 19.496 111.4 21.98C111.4 24.464 109.828 26 107.332 26ZM107.332 19.124H104.956V24.836H107.332C109.192 24.836 110.032 24.044 110.032 21.98C110.032 19.916 109.192 19.124 107.332 19.124ZM120.298 26H113.866V17.96H120.298V19.124H115.162V21.38H120.118V22.532H115.162V24.836H120.298V26ZM127.415 26H125.579L122.147 17.96H123.683L126.467 24.692H126.563L129.323 17.96H130.847L127.415 26ZM139.329 26H132.897V17.96H139.329V19.124H134.193V21.38H139.149V22.532H134.193V24.836H139.329V26ZM148.09 26H141.838V17.96H143.134V24.836H148.09V26ZM154.376 26.12C151.856 26.12 150.188 24.488 150.188 21.98C150.188 19.472 151.856 17.84 154.376 17.84C156.92 17.84 158.576 19.472 158.576 21.98C158.576 24.488 156.92 26.12 154.376 26.12ZM154.376 24.872C156.284 24.872 157.208 23.984 157.208 21.98C157.208 19.976 156.284 19.076 154.376 19.076C152.468 19.076 151.556 19.976 151.556 21.98C151.556 23.984 152.468 24.872 154.376 24.872ZM162.33 26H161.034V17.96H164.97C166.758 17.96 167.982 18.98 167.982 20.768C167.982 22.544 166.758 23.576 164.97 23.576H162.33V26ZM164.85 19.124H162.33V22.412H164.85C166.062 22.412 166.686 21.956 166.686 20.768C166.686 19.58 166.062 19.124 164.85 19.124ZM171.552 26H170.256V17.96H172.02L174.336 22.616L175.068 24.284H175.164L175.872 22.616L178.164 17.96H179.928V26H178.632V21.068L178.68 19.904H178.584L178.092 21.068L175.872 25.52H174.312L172.092 21.068L171.6 19.904H171.504L171.552 21.068V26ZM189.063 26H182.631V17.96H189.063V19.124H183.927V21.38H188.883V22.532H183.927V24.836H189.063V26ZM192.869 26H191.573V17.96H192.965L196.565 22.664L197.609 24.164H197.705L197.645 22.712V17.96H198.941V26H197.549L193.925 21.308L192.917 19.892H192.821L192.869 21.284V26ZM205.635 26H204.351V19.124H201.183V17.96H208.791V19.124H205.635V26Z" fill="black"/>
<path d="M227.052 23H225.42V21.14H227.052V23Z" fill="black"/>
<path d="M246.972 26.12C244.572 26.12 243.348 25.064 243.348 23.372V23.3H244.644V23.492C244.644 24.452 245.208 24.932 246.972 24.932C248.508 24.932 249.048 24.596 249.048 23.84C249.048 23.144 248.64 22.88 247.62 22.688L245.652 22.364C244.296 22.124 243.336 21.5 243.336 20.18C243.336 19.016 244.296 17.84 246.792 17.84C249.144 17.84 250.212 19.016 250.212 20.588V20.66H248.928V20.504C248.928 19.52 248.34 19.028 246.672 19.028C245.208 19.028 244.632 19.388 244.632 20.108C244.632 20.804 245.04 21.032 245.988 21.236L247.944 21.572C249.552 21.86 250.344 22.592 250.344 23.768C250.344 24.992 249.348 26.12 246.972 26.12ZM259.196 26H252.764V17.96H259.196V19.124H254.06V21.38H259.016V22.532H254.06V24.836H259.196V26ZM265.653 26.12C263.133 26.12 261.465 24.488 261.465 21.98C261.465 19.472 263.133 17.84 265.653 17.84C268.197 17.84 269.853 19.472 269.853 21.98C269.853 24.488 268.197 26.12 265.653 26.12ZM265.653 24.872C267.561 24.872 268.485 23.984 268.485 21.98C268.485 19.976 267.561 19.076 265.653 19.076C263.745 19.076 262.833 19.976 262.833 21.98C262.833 23.984 263.745 24.872 265.653 24.872Z" fill="black"/>
<path d="M288.052 23H286.42V21.14H288.052V23Z" fill="black"/>
<path d="M308.296 26.12C305.932 26.12 304.36 24.488 304.36 21.98C304.36 19.472 306.052 17.84 308.62 17.84C310.9 17.84 312.484 18.992 312.484 20.852V20.948H311.056V20.852C311.056 19.7 310.252 19.076 308.584 19.076C306.652 19.076 305.728 19.976 305.728 21.98C305.728 23.984 306.64 24.872 308.524 24.872C310.444 24.872 311.2 24.344 311.2 22.988V22.88H308.224V21.896H312.484V26H311.308V24.26H311.224C310.888 25.436 309.868 26.12 308.296 26.12ZM319.025 26.12C316.505 26.12 314.837 24.488 314.837 21.98C314.837 19.472 316.505 17.84 319.025 17.84C321.569 17.84 323.225 19.472 323.225 21.98C323.225 24.488 321.569 26.12 319.025 26.12ZM319.025 24.872C320.933 24.872 321.857 23.984 321.857 21.98C321.857 19.976 320.933 19.076 319.025 19.076C317.117 19.076 316.205 19.976 316.205 21.98C316.205 23.984 317.117 24.872 319.025 24.872ZM329.63 26.12C327.11 26.12 325.442 24.488 325.442 21.98C325.442 19.472 327.11 17.84 329.63 17.84C332.174 17.84 333.83 19.472 333.83 21.98C333.83 24.488 332.174 26.12 329.63 26.12ZM329.63 24.872C331.538 24.872 332.462 23.984 332.462 21.98C332.462 19.976 331.538 19.076 329.63 19.076C327.722 19.076 326.81 19.976 326.81 21.98C326.81 23.984 327.722 24.872 329.63 24.872ZM339.984 26.12C337.62 26.12 336.048 24.488 336.048 21.98C336.048 19.472 337.74 17.84 340.308 17.84C342.588 17.84 344.172 18.992 344.172 20.852V20.948H342.743V20.852C342.743 19.7 341.94 19.076 340.272 19.076C338.34 19.076 337.416 19.976 337.416 21.98C337.416 23.984 338.328 24.872 340.212 24.872C342.132 24.872 342.888 24.344 342.888 22.988V22.88H339.912V21.896H344.172V26H342.996V24.26H342.912C342.576 25.436 341.556 26.12 339.984 26.12ZM353.016 26H346.764V17.96H348.06V24.836H353.016V26ZM361.786 26H355.354V17.96H361.786V19.124H356.65V21.38H361.606V22.532H356.65V24.836H361.786V26ZM368.686 26H367.246L370.834 17.96H372.658L376.246 26H374.782L373.858 23.912H369.61L368.686 26ZM371.218 20.3L370.126 22.748H373.342L372.25 20.3L371.782 19.16H371.686L371.218 20.3ZM382.078 26H378.418V17.96H382.078C384.574 17.96 386.146 19.496 386.146 21.98C386.146 24.464 384.574 26 382.078 26ZM382.078 19.124H379.702V24.836H382.078C383.938 24.836 384.778 24.044 384.778 21.98C384.778 19.916 383.938 19.124 382.078 19.124ZM393.22 26H391.384L387.952 17.96H389.488L392.272 24.692H392.368L395.128 17.96H396.652L393.22 26ZM405.134 26H398.702V17.96H405.134V19.124H399.998V21.38H404.954V22.532H399.998V24.836H405.134V26ZM408.939 26H407.643V17.96H411.819C413.643 17.96 414.771 18.824 414.771 20.324C414.771 21.656 413.895 22.472 412.383 22.556V22.64C413.007 22.808 413.295 23.168 413.583 23.672L414.927 26H413.439L412.155 23.78C411.795 23.144 411.423 22.88 410.415 22.88H408.939V26ZM408.939 19.124V21.884H411.807C412.887 21.884 413.427 21.512 413.427 20.504C413.427 19.52 412.887 19.124 411.807 19.124H408.939ZM421.201 26H419.917V19.124H416.749V17.96H424.357V19.124H421.201V26ZM427.912 26H426.616V17.96H427.912V26ZM433.984 26.12C431.584 26.12 430.36 25.064 430.36 23.372V23.3H431.656V23.492C431.656 24.452 432.22 24.932 433.984 24.932C435.52 24.932 436.06 24.596 436.06 23.84C436.06 23.144 435.652 22.88 434.632 22.688L432.664 22.364C431.308 22.124 430.348 21.5 430.348 20.18C430.348 19.016 431.308 17.84 433.804 17.84C436.156 17.84 437.224 19.016 437.224 20.588V20.66H435.94V20.504C435.94 19.52 435.352 19.028 433.684 19.028C432.22 19.028 431.644 19.388 431.644 20.108C431.644 20.804 432.052 21.032 433 21.236L434.956 21.572C436.564 21.86 437.356 22.592 437.356 23.768C437.356 24.992 436.36 26.12 433.984 26.12ZM441.072 26H439.776V17.96H441.072V26ZM445.068 26H443.772V17.96H445.164L448.764 22.664L449.808 24.164H449.904L449.844 22.712V17.96H451.14V26H449.748L446.124 21.308L445.116 19.892H445.02L445.068 21.284V26ZM457.534 26.12C455.17 26.12 453.598 24.488 453.598 21.98C453.598 19.472 455.29 17.84 457.858 17.84C460.138 17.84 461.722 18.992 461.722 20.852V20.948H460.294V20.852C460.294 19.7 459.49 19.076 457.822 19.076C455.89 19.076 454.966 19.976 454.966 21.98C454.966 23.984 455.878 24.872 457.762 24.872C459.682 24.872 460.438 24.344 460.438 22.988V22.88H457.462V21.896H461.722V26H460.546V24.26H460.462C460.126 25.436 459.106 26.12 457.534 26.12Z" fill="black"/>
<path d="M480.052 23H478.42V21.14H480.052V23Z" fill="black"/>
<path d="M497.896 26H496.6V17.96H498.364L500.68 22.616L501.412 24.284H501.508L502.216 22.616L504.508 17.96H506.272V26H504.976V21.068L505.024 19.904H504.928L504.436 21.068L502.216 25.52H500.656L498.436 21.068L497.944 19.904H497.848L497.896 21.068V26ZM509.815 26H508.375L511.963 17.96H513.787L517.375 26H515.911L514.987 23.912H510.739L509.815 26ZM512.347 20.3L511.255 22.748H514.471L513.379 20.3L512.911 19.16H512.815L512.347 20.3ZM520.771 26H519.475V17.96H523.651C525.475 17.96 526.603 18.824 526.603 20.324C526.603 21.656 525.727 22.472 524.215 22.556V22.64C524.839 22.808 525.127 23.168 525.415 23.672L526.759 26H525.271L523.987 23.78C523.627 23.144 523.255 22.88 522.247 22.88H520.771V26ZM520.771 19.124V21.884H523.639C524.719 21.884 525.259 21.512 525.259 20.504C525.259 19.52 524.719 19.124 523.639 19.124H520.771ZM530.334 26H529.038V17.96H530.334V21.392H532.77L535.122 17.96H536.658L533.85 21.932L536.646 26H535.11L532.794 22.64H530.334V26ZM545.278 26H538.846V17.96H545.278V19.124H540.142V21.38H545.098V22.532H540.142V24.836H545.278V26ZM551.784 26H550.5V19.124H547.332V17.96H554.94V19.124H551.784V26ZM558.494 26H557.198V17.96H558.494V26ZM562.49 26H561.194V17.96H562.586L566.186 22.664L567.23 24.164H567.326L567.266 22.712V17.96H568.562V26H567.17L563.546 21.308L562.538 19.892H562.442L562.49 21.284V26ZM574.956 26.12C572.592 26.12 571.02 24.488 571.02 21.98C571.02 19.472 572.712 17.84 575.28 17.84C577.56 17.84 579.144 18.992 579.144 20.852V20.948H577.716V20.852C577.716 19.7 576.912 19.076 575.244 19.076C573.312 19.076 572.388 19.976 572.388 21.98C572.388 23.984 573.3 24.872 575.184 24.872C577.104 24.872 577.86 24.344 577.86 22.988V22.88H574.884V21.896H579.144V26H577.968V24.26H577.884C577.548 25.436 576.528 26.12 574.956 26.12Z" fill="black"/>
<path d="M597.052 23H595.42V21.14H597.052V23Z" fill="black"/>
<path d="M617.332 26H613.672V17.96H617.332C619.828 17.96 621.4 19.496 621.4 21.98C621.4 24.464 619.828 26 617.332 26ZM617.332 19.124H614.956V24.836H617.332C619.192 24.836 620.032 24.044 620.032 21.98C620.032 19.916 619.192 19.124 617.332 19.124ZM630.298 26H623.866V17.96H630.298V19.124H625.162V21.38H630.118V22.532H625.162V24.836H630.298V26ZM636.179 26.12C633.779 26.12 632.555 25.064 632.555 23.372V23.3H633.851V23.492C633.851 24.452 634.415 24.932 636.179 24.932C637.715 24.932 638.255 24.596 638.255 23.84C638.255 23.144 637.847 22.88 636.827 22.688L634.859 22.364C633.503 22.124 632.543 21.5 632.543 20.18C632.543 19.016 633.503 17.84 635.999 17.84C638.351 17.84 639.419 19.016 639.419 20.588V20.66H638.135V20.504C638.135 19.52 637.547 19.028 635.879 19.028C634.415 19.028 633.839 19.388 633.839 20.108C633.839 20.804 634.247 21.032 635.195 21.236L637.151 21.572C638.759 21.86 639.551 22.592 639.551 23.768C639.551 24.992 638.555 26.12 636.179 26.12ZM643.267 26H641.971V17.96H643.267V26ZM649.663 26.12C647.299 26.12 645.727 24.488 645.727 21.98C645.727 19.472 647.419 17.84 649.987 17.84C652.267 17.84 653.851 18.992 653.851 20.852V20.948H652.423V20.852C652.423 19.7 651.619 19.076 649.951 19.076C648.019 19.076 647.095 19.976 647.095 21.98C647.095 23.984 648.007 24.872 649.891 24.872C651.811 24.872 652.567 24.344 652.567 22.988V22.88H649.591V21.896H653.851V26H652.675V24.26H652.591C652.255 25.436 651.235 26.12 649.663 26.12ZM657.74 26H656.444V17.96H657.836L661.436 22.664L662.48 24.164H662.576L662.516 22.712V17.96H663.812V26H662.42L658.796 21.308L657.788 19.892H657.692L657.74 21.284V26Z" fill="black"/>
<path d="M682.052 23H680.42V21.14H682.052V23Z" fill="black"/>
<path d="M702.332 26H698.672V17.96H702.332C704.828 17.96 706.4 19.496 706.4 21.98C706.4 24.464 704.828 26 702.332 26ZM702.332 19.124H699.956V24.836H702.332C704.192 24.836 705.032 24.044 705.032 21.98C705.032 19.916 704.192 19.124 702.332 19.124ZM715.298 26H708.866V17.96H715.298V19.124H710.162V21.38H715.118V22.532H710.162V24.836H715.298V26ZM722.415 26H720.579L717.147 17.96H718.683L721.467 24.692H721.563L724.323 17.96H725.847L722.415 26ZM734.329 26H727.897V17.96H734.329V19.124H729.193V21.38H734.149V22.532H729.193V24.836H734.329V26ZM743.09 26H736.838V17.96H738.134V24.836H743.09V26ZM749.376 26.12C746.856 26.12 745.188 24.488 745.188 21.98C745.188 19.472 746.856 17.84 749.376 17.84C751.92 17.84 753.576 19.472 753.576 21.98C753.576 24.488 751.92 26.12 749.376 26.12ZM749.376 24.872C751.284 24.872 752.208 23.984 752.208 21.98C752.208 19.976 751.284 19.076 749.376 19.076C747.468 19.076 746.556 19.976 746.556 21.98C746.556 23.984 747.468 24.872 749.376 24.872ZM757.33 26H756.034V17.96H759.97C761.758 17.96 762.982 18.98 762.982 20.768C762.982 22.544 761.758 23.576 759.97 23.576H757.33V26ZM759.85 19.124H757.33V22.412H759.85C761.062 22.412 761.686 21.956 761.686 20.768C761.686 19.58 761.062 19.124 759.85 19.124ZM766.552 26H765.256V17.96H767.02L769.336 22.616L770.068 24.284H770.164L770.872 22.616L773.164 17.96H774.928V26H773.632V21.068L773.68 19.904H773.584L773.092 21.068L770.872 25.52H769.312L767.092 21.068L766.6 19.904H766.504L766.552 21.068V26ZM784.063 26H777.631V17.96H784.063V19.124H778.927V21.38H783.883V22.532H778.927V24.836H784.063V26ZM787.869 26H786.573V17.96H787.965L791.565 22.664L792.609 24.164H792.705L792.645 22.712V17.96H793.941V26H792.549L788.925 21.308L787.917 19.892H787.821L787.869 21.284V26ZM800.635 26H799.351V19.124H796.183V17.96H803.791V19.124H800.635V26Z" fill="black"/>
<path d="M821.052 23H819.42V21.14H821.052V23Z" fill="black"/>
<path d="M840.972 26.12C838.572 26.12 837.348 25.064 837.348 23.372V23.3H838.644V23.492C838.644 24.452 839.208 24.932 840.972 24.932C842.508 24.932 843.048 24.596 843.048 23.84C843.048 23.144 842.64 22.88 841.62 22.688L839.652 22.364C838.296 22.124 837.336 21.5 837.336 20.18C837.336 19.016 838.296 17.84 840.792 17.84C843.144 17.84 844.212 19.016 844.212 20.588V20.66H842.928V20.504C842.928 19.52 842.34 19.028 840.672 19.028C839.208 19.028 838.632 19.388 838.632 20.108C838.632 20.804 839.04 21.032 839.988 21.236L841.944 21.572C843.552 21.86 844.344 22.592 844.344 23.768C844.344 24.992 843.348 26.12 840.972 26.12ZM853.196 26H846.764V17.96H853.196V19.124H848.06V21.38H853.016V22.532H848.06V24.836H853.196V26ZM859.653 26.12C857.133 26.12 855.465 24.488 855.465 21.98C855.465 19.472 857.133 17.84 859.653 17.84C862.197 17.84 863.853 19.472 863.853 21.98C863.853 24.488 862.197 26.12 859.653 26.12ZM859.653 24.872C861.561 24.872 862.485 23.984 862.485 21.98C862.485 19.976 861.561 19.076 859.653 19.076C857.745 19.076 856.833 19.976 856.833 21.98C856.833 23.984 857.745 24.872 859.653 24.872Z" fill="black"/>
<path d="M882.052 23H880.42V21.14H882.052V23Z" fill="black"/>
<path d="M902.296 26.12C899.932 26.12 898.36 24.488 898.36 21.98C898.36 19.472 900.052 17.84 902.62 17.84C904.9 17.84 906.484 18.992 906.484 20.852V20.948H905.056V20.852C905.056 19.7 904.252 19.076 902.584 19.076C900.652 19.076 899.728 19.976 899.728 21.98C899.728 23.984 900.64 24.872 902.524 24.872C904.444 24.872 905.2 24.344 905.2 22.988V22.88H902.224V21.896H906.484V26H905.308V24.26H905.224C904.888 25.436 903.868 26.12 902.296 26.12ZM913.025 26.12C910.505 26.12 908.837 24.488 908.837 21.98C908.837 19.472 910.505 17.84 913.025 17.84C915.569 17.84 917.225 19.472 917.225 21.98C917.225 24.488 915.569 26.12 913.025 26.12ZM913.025 24.872C914.933 24.872 915.857 23.984 915.857 21.98C915.857 19.976 914.933 19.076 913.025 19.076C911.117 19.076 910.205 19.976 910.205 21.98C910.205 23.984 911.117 24.872 913.025 24.872ZM923.63 26.12C921.11 26.12 919.442 24.488 919.442 21.98C919.442 19.472 921.11 17.84 923.63 17.84C926.174 17.84 927.83 19.472 927.83 21.98C927.83 24.488 926.174 26.12 923.63 26.12ZM923.63 24.872C925.538 24.872 926.462 23.984 926.462 21.98C926.462 19.976 925.538 19.076 923.63 19.076C921.722 19.076 920.81 19.976 920.81 21.98C920.81 23.984 921.722 24.872 923.63 24.872ZM933.984 26.12C931.62 26.12 930.048 24.488 930.048 21.98C930.048 19.472 931.74 17.84 934.308 17.84C936.588 17.84 938.172 18.992 938.172 20.852V20.948H936.743V20.852C936.743 19.7 935.94 19.076 934.272 19.076C932.34 19.076 931.416 19.976 931.416 21.98C931.416 23.984 932.328 24.872 934.212 24.872C936.132 24.872 936.888 24.344 936.888 22.988V22.88H933.912V21.896H938.172V26H936.996V24.26H936.912C936.576 25.436 935.556 26.12 933.984 26.12ZM947.016 26H940.764V17.96H942.06V24.836H947.016V26ZM955.786 26H949.354V17.96H955.786V19.124H950.65V21.38H955.606V22.532H950.65V24.836H955.786V26ZM962.686 26H961.246L964.834 17.96H966.658L970.246 26H968.782L967.858 23.912H963.61L962.686 26ZM965.218 20.3L964.126 22.748H967.342L966.25 20.3L965.782 19.16H965.686L965.218 20.3ZM976.078 26H972.418V17.96H976.078C978.574 17.96 980.146 19.496 980.146 21.98C980.146 24.464 978.574 26 976.078 26ZM976.078 19.124H973.702V24.836H976.078C977.938 24.836 978.778 24.044 978.778 21.98C978.778 19.916 977.938 19.124 976.078 19.124ZM987.22 26H985.384L981.952 17.96H983.488L986.272 24.692H986.368L989.128 17.96H990.652L987.22 26ZM999.134 26H992.702V17.96H999.134V19.124H993.998V21.38H998.954V22.532H993.998V24.836H999.134V26ZM1002.94 26H1001.64V17.96H1005.82C1007.64 17.96 1008.77 18.824 1008.77 20.324C1008.77 21.656 1007.89 22.472 1006.38 22.556V22.64C1007.01 22.808 1007.29 23.168 1007.58 23.672L1008.93 26H1007.44L1006.15 23.78C1005.79 23.144 1005.42 22.88 1004.41 22.88H1002.94V26ZM1002.94 19.124V21.884H1005.81C1006.89 21.884 1007.43 21.512 1007.43 20.504C1007.43 19.52 1006.89 19.124 1005.81 19.124H1002.94ZM1015.2 26H1013.92V19.124H1010.75V17.96H1018.36V19.124H1015.2V26ZM1021.91 26H1020.62V17.96H1021.91V26ZM1027.98 26.12C1025.58 26.12 1024.36 25.064 1024.36 23.372V23.3H1025.66V23.492C1025.66 24.452 1026.22 24.932 1027.98 24.932C1029.52 24.932 1030.06 24.596 1030.06 23.84C1030.06 23.144 1029.65 22.88 1028.63 22.688L1026.66 22.364C1025.31 22.124 1024.35 21.5 1024.35 20.18C1024.35 19.016 1025.31 17.84 1027.8 17.84C1030.16 17.84 1031.22 19.016 1031.22 20.588V20.66H1029.94V20.504C1029.94 19.52 1029.35 19.028 1027.68 19.028C1026.22 19.028 1025.64 19.388 1025.64 20.108C1025.64 20.804 1026.05 21.032 1027 21.236L1028.96 21.572C1030.56 21.86 1031.36 22.592 1031.36 23.768C1031.36 24.992 1030.36 26.12 1027.98 26.12ZM1035.07 26H1033.78V17.96H1035.07V26ZM1039.07 26H1037.77V17.96H1039.16L1042.76 22.664L1043.81 24.164H1043.9L1043.84 22.712V17.96H1045.14V26H1043.75L1040.12 21.308L1039.12 19.892H1039.02L1039.07 21.284V26ZM1051.53 26.12C1049.17 26.12 1047.6 24.488 1047.6 21.98C1047.6 19.472 1049.29 17.84 1051.86 17.84C1054.14 17.84 1055.72 18.992 1055.72 20.852V20.948H1054.29V20.852C1054.29 19.7 1053.49 19.076 1051.82 19.076C1049.89 19.076 1048.97 19.976 1048.97 21.98C1048.97 23.984 1049.88 24.872 1051.76 24.872C1053.68 24.872 1054.44 24.344 1054.44 22.988V22.88H1051.46V21.896H1055.72V26H1054.55V24.26H1054.46C1054.13 25.436 1053.11 26.12 1051.53 26.12Z" fill="black"/>
<path d="M1074.05 23H1072.42V21.14H1074.05V23Z" fill="black"/>
<path d="M1091.9 26H1090.6V17.96H1092.36L1094.68 22.616L1095.41 24.284H1095.51L1096.22 22.616L1098.51 17.96H1100.27V26H1098.98V21.068L1099.02 19.904H1098.93L1098.44 21.068L1096.22 25.52H1094.66L1092.44 21.068L1091.94 19.904H1091.85L1091.9 21.068V26ZM1103.82 26H1102.38L1105.96 17.96H1107.79L1111.38 26H1109.91L1108.99 23.912H1104.74L1103.82 26ZM1106.35 20.3L1105.26 22.748H1108.47L1107.38 20.3L1106.91 19.16H1106.82L1106.35 20.3ZM1114.77 26H1113.48V17.96H1117.65C1119.48 17.96 1120.6 18.824 1120.6 20.324C1120.6 21.656 1119.73 22.472 1118.22 22.556V22.64C1118.84 22.808 1119.13 23.168 1119.42 23.672L1120.76 26H1119.27L1117.99 23.78C1117.63 23.144 1117.26 22.88 1116.25 22.88H1114.77V26ZM1114.77 19.124V21.884H1117.64C1118.72 21.884 1119.26 21.512 1119.26 20.504C1119.26 19.52 1118.72 19.124 1117.64 19.124H1114.77ZM1124.33 26H1123.04V17.96H1124.33V21.392H1126.77L1129.12 17.96H1130.66L1127.85 21.932L1130.65 26H1129.11L1126.79 22.64H1124.33V26ZM1139.28 26H1132.85V17.96H1139.28V19.124H1134.14V21.38H1139.1V22.532H1134.14V24.836H1139.28V26ZM1145.78 26H1144.5V19.124H1141.33V17.96H1148.94V19.124H1145.78V26ZM1152.49 26H1151.2V17.96H1152.49V26ZM1156.49 26H1155.19V17.96H1156.59L1160.19 22.664L1161.23 24.164H1161.33L1161.27 22.712V17.96H1162.56V26H1161.17L1157.55 21.308L1156.54 19.892H1156.44L1156.49 21.284V26ZM1168.96 26.12C1166.59 26.12 1165.02 24.488 1165.02 21.98C1165.02 19.472 1166.71 17.84 1169.28 17.84C1171.56 17.84 1173.14 18.992 1173.14 20.852V20.948H1171.72V20.852C1171.72 19.7 1170.91 19.076 1169.24 19.076C1167.31 19.076 1166.39 19.976 1166.39 21.98C1166.39 23.984 1167.3 24.872 1169.18 24.872C1171.1 24.872 1171.86 24.344 1171.86 22.988V22.88H1168.88V21.896H1173.14V26H1171.97V24.26H1171.88C1171.55 25.436 1170.53 26.12 1168.96 26.12Z" fill="black"/>
<path d="M1191.05 23H1189.42V21.14H1191.05V23Z" fill="black"/>
<path d="M1211.33 26H1207.67V17.96H1211.33C1213.83 17.96 1215.4 19.496 1215.4 21.98C1215.4 24.464 1213.83 26 1211.33 26ZM1211.33 19.124H1208.96V24.836H1211.33C1213.19 24.836 1214.03 24.044 1214.03 21.98C1214.03 19.916 1213.19 19.124 1211.33 19.124ZM1224.3 26H1217.87V17.96H1224.3V19.124H1219.16V21.38H1224.12V22.532H1219.16V24.836H1224.3V26ZM1230.18 26.12C1227.78 26.12 1226.56 25.064 1226.56 23.372V23.3H1227.85V23.492C1227.85 24.452 1228.42 24.932 1230.18 24.932C1231.72 24.932 1232.26 24.596 1232.26 23.84C1232.26 23.144 1231.85 22.88 1230.83 22.688L1228.86 22.364C1227.5 22.124 1226.54 21.5 1226.54 20.18C1226.54 19.016 1227.5 17.84 1230 17.84C1232.35 17.84 1233.42 19.016 1233.42 20.588V20.66H1232.14V20.504C1232.14 19.52 1231.55 19.028 1229.88 19.028C1228.42 19.028 1227.84 19.388 1227.84 20.108C1227.84 20.804 1228.25 21.032 1229.2 21.236L1231.15 21.572C1232.76 21.86 1233.55 22.592 1233.55 23.768C1233.55 24.992 1232.56 26.12 1230.18 26.12ZM1237.27 26H1235.97V17.96H1237.27V26ZM1243.66 26.12C1241.3 26.12 1239.73 24.488 1239.73 21.98C1239.73 19.472 1241.42 17.84 1243.99 17.84C1246.27 17.84 1247.85 18.992 1247.85 20.852V20.948H1246.42V20.852C1246.42 19.7 1245.62 19.076 1243.95 19.076C1242.02 19.076 1241.1 19.976 1241.1 21.98C1241.1 23.984 1242.01 24.872 1243.89 24.872C1245.81 24.872 1246.57 24.344 1246.57 22.988V22.88H1243.59V21.896H1247.85V26H1246.68V24.26H1246.59C1246.26 25.436 1245.24 26.12 1243.66 26.12ZM1251.74 26H1250.44V17.96H1251.84L1255.44 22.664L1256.48 24.164H1256.58L1256.52 22.712V17.96H1257.81V26H1256.42L1252.8 21.308L1251.79 19.892H1251.69L1251.74 21.284V26Z" fill="black"/>
<path d="M1276.05 23H1274.42V21.14H1276.05V23Z" fill="black"/>
</svg>
