<svg width="2050" height="44" viewBox="0 0 2050 44" fill="none" xmlns="http://www.w3.org/2000/svg">
<g clip-path="url(#clip0_471_200)">
<path d="M19.332 26H15.672V17.96H19.332C21.828 17.96 23.4 19.496 23.4 21.98C23.4 24.464 21.828 26 19.332 26ZM19.332 19.124H16.956V24.836H19.332C21.192 24.836 22.032 24.044 22.032 21.98C22.032 19.916 21.192 19.124 19.332 19.124ZM27.1616 26H25.8656V17.96H27.1616V26ZM33.2337 26.12C30.8337 26.12 29.6097 25.064 29.6097 23.372V23.3H30.9057V23.492C30.9057 24.452 31.4697 24.932 33.2337 24.932C34.7697 24.932 35.3097 24.596 35.3097 23.84C35.3097 23.144 34.9017 22.88 33.8817 22.688L31.9137 22.364C30.5577 22.124 29.5977 21.5 29.5977 20.18C29.5977 19.016 30.5577 17.84 33.0537 17.84C35.4057 17.84 36.4737 19.016 36.4737 20.588V20.66H35.1897V20.504C35.1897 19.52 34.6017 19.028 32.9337 19.028C31.4697 19.028 30.8937 19.388 30.8937 20.108C30.8937 20.804 31.3017 21.032 32.2497 21.236L34.2057 21.572C35.8137 21.86 36.6057 22.592 36.6057 23.768C36.6057 24.992 35.6097 26.12 33.2337 26.12ZM42.9378 26.12C40.4418 26.12 38.7858 24.488 38.7858 21.98C38.7858 19.472 40.4418 17.84 42.9378 17.84C45.2058 17.84 46.7898 19.04 46.7898 20.96V21.128H45.3618V20.96C45.3618 19.736 44.5818 19.076 42.9498 19.076C41.0658 19.076 40.1538 19.976 40.1538 21.98C40.1538 23.984 41.0658 24.872 42.9498 24.872C44.5818 24.872 45.3618 24.224 45.3618 22.988V22.832H46.7898V22.988C46.7898 24.92 45.2178 26.12 42.9378 26.12ZM52.9645 26.12C50.5645 26.12 49.1965 24.848 49.1965 22.664V17.96H50.4805V22.58C50.4805 24.2 51.2005 24.872 52.9645 24.872C54.7285 24.872 55.4485 24.2 55.4485 22.58V17.96H56.7445V22.664C56.7445 24.848 55.3765 26.12 52.9645 26.12ZM62.765 26.12C60.365 26.12 59.141 25.064 59.141 23.372V23.3H60.437V23.492C60.437 24.452 61.001 24.932 62.765 24.932C64.301 24.932 64.841 24.596 64.841 23.84C64.841 23.144 64.433 22.88 63.413 22.688L61.445 22.364C60.089 22.124 59.129 21.5 59.129 20.18C59.129 19.016 60.089 17.84 62.585 17.84C64.937 17.84 66.005 19.016 66.005 20.588V20.66H64.721V20.504C64.721 19.52 64.133 19.028 62.465 19.028C61.001 19.028 60.425 19.388 60.425 20.108C60.425 20.804 60.833 21.032 61.781 21.236L63.737 21.572C65.345 21.86 66.137 22.592 66.137 23.768C66.137 24.992 65.141 26.12 62.765 26.12ZM71.929 26.12C69.529 26.12 68.305 25.064 68.305 23.372V23.3H69.601V23.492C69.601 24.452 70.165 24.932 71.929 24.932C73.465 24.932 74.005 24.596 74.005 23.84C74.005 23.144 73.597 22.88 72.577 22.688L70.609 22.364C69.253 22.124 68.293 21.5 68.293 20.18C68.293 19.016 69.253 17.84 71.749 17.84C74.101 17.84 75.169 19.016 75.169 20.588V20.66H73.885V20.504C73.885 19.52 73.297 19.028 71.629 19.028C70.165 19.028 69.589 19.388 69.589 20.108C69.589 20.804 69.997 21.032 70.945 21.236L72.901 21.572C74.509 21.86 75.301 22.592 75.301 23.768C75.301 24.992 74.305 26.12 71.929 26.12ZM84.6439 26.12C82.2439 26.12 81.0199 25.064 81.0199 23.372V23.3H82.3159V23.492C82.3159 24.452 82.8799 24.932 84.6439 24.932C86.1799 24.932 86.7199 24.596 86.7199 23.84C86.7199 23.144 86.3119 22.88 85.2919 22.688L83.3239 22.364C81.9679 22.124 81.0079 21.5 81.0079 20.18C81.0079 19.016 81.9679 17.84 84.4639 17.84C86.8159 17.84 87.8839 19.016 87.8839 20.588V20.66H86.5999V20.504C86.5999 19.52 86.0119 19.028 84.3439 19.028C82.8799 19.028 82.3039 19.388 82.3039 20.108C82.3039 20.804 82.7119 21.032 83.6599 21.236L85.6159 21.572C87.2239 21.86 88.0159 22.592 88.0159 23.768C88.0159 24.992 87.0199 26.12 84.6439 26.12ZM94.3479 26.12C91.8519 26.12 90.1959 24.488 90.1959 21.98C90.1959 19.472 91.8519 17.84 94.3479 17.84C96.6159 17.84 98.1999 19.04 98.1999 20.96V21.128H96.7719V20.96C96.7719 19.736 95.9919 19.076 94.3599 19.076C92.4759 19.076 91.5639 19.976 91.5639 21.98C91.5639 23.984 92.4759 24.872 94.3599 24.872C95.9919 24.872 96.7719 24.224 96.7719 22.988V22.832H98.1999V22.988C98.1999 24.92 96.6279 26.12 94.3479 26.12ZM101.495 26H100.055L103.643 17.96H105.467L109.055 26H107.591L106.667 23.912H102.419L101.495 26ZM104.027 20.3L102.935 22.748H106.151L105.059 20.3L104.591 19.16H104.495L104.027 20.3ZM117.407 26H111.155V17.96H112.451V24.836H117.407V26ZM126.177 26H119.745V17.96H126.177V19.124H121.041V21.38H125.997V22.532H121.041V24.836H126.177V26ZM136.365 26H135.081V23.228L131.553 17.96H133.137L135.033 20.816L135.705 21.836H135.801L136.461 20.816L138.345 17.96H139.941L136.365 23.252V26ZM145.888 26.12C143.368 26.12 141.7 24.488 141.7 21.98C141.7 19.472 143.368 17.84 145.888 17.84C148.432 17.84 150.088 19.472 150.088 21.98C150.088 24.488 148.432 26.12 145.888 26.12ZM145.888 24.872C147.796 24.872 148.72 23.984 148.72 21.98C148.72 19.976 147.796 19.076 145.888 19.076C143.98 19.076 143.068 19.976 143.068 21.98C143.068 23.984 143.98 24.872 145.888 24.872ZM156.265 26.12C153.865 26.12 152.497 24.848 152.497 22.664V17.96H153.781V22.58C153.781 24.2 154.501 24.872 156.265 24.872C158.029 24.872 158.749 24.2 158.749 22.58V17.96H160.045V22.664C160.045 24.848 158.677 26.12 156.265 26.12ZM163.99 26H162.694V17.96H166.87C168.694 17.96 169.822 18.824 169.822 20.324C169.822 21.656 168.946 22.472 167.434 22.556V22.64C168.058 22.808 168.346 23.168 168.634 23.672L169.978 26H168.49L167.206 23.78C166.846 23.144 166.474 22.88 165.466 22.88H163.99V26ZM163.99 19.124V21.884H166.858C167.938 21.884 168.478 21.512 168.478 20.504C168.478 19.52 167.938 19.124 166.858 19.124H163.99ZM180.415 26H175.747V17.96H180.247C181.783 17.96 182.707 18.668 182.707 19.94C182.707 20.888 182.179 21.596 180.955 21.74V21.824C182.323 21.98 182.995 22.724 182.995 23.78C182.995 25.16 182.071 26 180.415 26ZM177.031 19.124V21.332H180.067C180.967 21.332 181.423 20.984 181.423 20.228C181.423 19.472 181.003 19.124 180.103 19.124H177.031ZM177.031 22.4V24.836H180.271C181.231 24.836 181.699 24.476 181.699 23.6C181.699 22.76 181.219 22.4 180.271 22.4H177.031ZM189.054 26.12C186.654 26.12 185.286 24.848 185.286 22.664V17.96H186.57V22.58C186.57 24.2 187.29 24.872 189.054 24.872C190.818 24.872 191.538 24.2 191.538 22.58V17.96H192.834V22.664C192.834 24.848 191.466 26.12 189.054 26.12ZM198.855 26.12C196.455 26.12 195.231 25.064 195.231 23.372V23.3H196.527V23.492C196.527 24.452 197.091 24.932 198.855 24.932C200.391 24.932 200.931 24.596 200.931 23.84C200.931 23.144 200.523 22.88 199.503 22.688L197.535 22.364C196.179 22.124 195.219 21.5 195.219 20.18C195.219 19.016 196.179 17.84 198.675 17.84C201.027 17.84 202.095 19.016 202.095 20.588V20.66H200.811V20.504C200.811 19.52 200.223 19.028 198.555 19.028C197.091 19.028 196.515 19.388 196.515 20.108C196.515 20.804 196.923 21.032 197.871 21.236L199.827 21.572C201.435 21.86 202.227 22.592 202.227 23.768C202.227 24.992 201.231 26.12 198.855 26.12ZM205.943 26H204.647V17.96H205.943V26ZM209.939 26H208.643V17.96H210.035L213.635 22.664L214.679 24.164H214.775L214.715 22.712V17.96H216.011V26H214.619L210.995 21.308L209.987 19.892H209.891L209.939 21.284V26ZM225.141 26H218.709V17.96H225.141V19.124H220.005V21.38H224.961V22.532H220.005V24.836H225.141V26ZM231.023 26.12C228.623 26.12 227.399 25.064 227.399 23.372V23.3H228.695V23.492C228.695 24.452 229.259 24.932 231.023 24.932C232.559 24.932 233.099 24.596 233.099 23.84C233.099 23.144 232.691 22.88 231.671 22.688L229.703 22.364C228.347 22.124 227.387 21.5 227.387 20.18C227.387 19.016 228.347 17.84 230.843 17.84C233.195 17.84 234.263 19.016 234.263 20.588V20.66H232.979V20.504C232.979 19.52 232.391 19.028 230.723 19.028C229.259 19.028 228.683 19.388 228.683 20.108C228.683 20.804 229.091 21.032 230.039 21.236L231.995 21.572C233.603 21.86 234.395 22.592 234.395 23.768C234.395 24.992 233.399 26.12 231.023 26.12ZM240.187 26.12C237.787 26.12 236.563 25.064 236.563 23.372V23.3H237.859V23.492C237.859 24.452 238.423 24.932 240.187 24.932C241.723 24.932 242.263 24.596 242.263 23.84C242.263 23.144 241.855 22.88 240.835 22.688L238.867 22.364C237.511 22.124 236.551 21.5 236.551 20.18C236.551 19.016 237.511 17.84 240.007 17.84C242.359 17.84 243.427 19.016 243.427 20.588V20.66H242.143V20.504C242.143 19.52 241.555 19.028 239.887 19.028C238.423 19.028 237.847 19.388 237.847 20.108C237.847 20.804 238.255 21.032 239.203 21.236L241.159 21.572C242.767 21.86 243.559 22.592 243.559 23.768C243.559 24.992 242.563 26.12 240.187 26.12ZM253.478 26.12C250.958 26.12 249.29 24.488 249.29 21.98C249.29 19.472 250.958 17.84 253.478 17.84C256.022 17.84 257.678 19.472 257.678 21.98C257.678 24.488 256.022 26.12 253.478 26.12ZM253.478 24.872C255.386 24.872 256.31 23.984 256.31 21.98C256.31 19.976 255.386 19.076 253.478 19.076C251.57 19.076 250.658 19.976 250.658 21.98C250.658 23.984 251.57 24.872 253.478 24.872ZM261.431 26H260.135V17.96H264.311C266.135 17.96 267.263 18.824 267.263 20.324C267.263 21.656 266.387 22.472 264.875 22.556V22.64C265.499 22.808 265.787 23.168 266.075 23.672L267.419 26H265.931L264.647 23.78C264.287 23.144 263.915 22.88 262.907 22.88H261.431V26ZM261.431 19.124V21.884H264.299C265.379 21.884 265.919 21.512 265.919 20.504C265.919 19.52 265.379 19.124 264.299 19.124H261.431ZM277.376 26H276.092V23.228L272.564 17.96H274.148L276.044 20.816L276.716 21.836H276.812L277.472 20.816L279.356 17.96H280.952L277.376 23.252V26ZM286.9 26.12C284.38 26.12 282.712 24.488 282.712 21.98C282.712 19.472 284.38 17.84 286.9 17.84C289.444 17.84 291.1 19.472 291.1 21.98C291.1 24.488 289.444 26.12 286.9 26.12ZM286.9 24.872C288.808 24.872 289.732 23.984 289.732 21.98C289.732 19.976 288.808 19.076 286.9 19.076C284.992 19.076 284.08 19.976 284.08 21.98C284.08 23.984 284.992 24.872 286.9 24.872ZM297.277 26.12C294.877 26.12 293.509 24.848 293.509 22.664V17.96H294.793V22.58C294.793 24.2 295.513 24.872 297.277 24.872C299.041 24.872 299.761 24.2 299.761 22.58V17.96H301.057V22.664C301.057 24.848 299.689 26.12 297.277 26.12ZM305.001 26H303.705V17.96H307.881C309.705 17.96 310.833 18.824 310.833 20.324C310.833 21.656 309.957 22.472 308.445 22.556V22.64C309.069 22.808 309.357 23.168 309.645 23.672L310.989 26H309.501L308.217 23.78C307.857 23.144 307.485 22.88 306.477 22.88H305.001V26ZM305.001 19.124V21.884H307.869C308.949 21.884 309.489 21.512 309.489 20.504C309.489 19.52 308.949 19.124 307.869 19.124H305.001ZM318.115 26H316.819V17.96H318.115V26ZM324.547 26H320.887V17.96H324.547C327.043 17.96 328.615 19.496 328.615 21.98C328.615 24.464 327.043 26 324.547 26ZM324.547 19.124H322.171V24.836H324.547C326.407 24.836 327.247 24.044 327.247 21.98C327.247 19.916 326.407 19.124 324.547 19.124ZM337.512 26H331.08V17.96H337.512V19.124H332.376V21.38H337.332V22.532H332.376V24.836H337.512V26ZM340.862 26H339.422L343.01 17.96H344.834L348.422 26H346.958L346.034 23.912H341.786L340.862 26ZM343.394 20.3L342.302 22.748H345.518L344.426 20.3L343.958 19.16H343.862L343.394 20.3ZM353.894 26.12C351.494 26.12 350.27 25.064 350.27 23.372V23.3H351.566V23.492C351.566 24.452 352.13 24.932 353.894 24.932C355.43 24.932 355.97 24.596 355.97 23.84C355.97 23.144 355.562 22.88 354.542 22.688L352.574 22.364C351.218 22.124 350.258 21.5 350.258 20.18C350.258 19.016 351.218 17.84 353.714 17.84C356.066 17.84 357.134 19.016 357.134 20.588V20.66H355.85V20.504C355.85 19.52 355.262 19.028 353.594 19.028C352.13 19.028 351.554 19.388 351.554 20.108C351.554 20.804 351.962 21.032 352.91 21.236L354.866 21.572C356.474 21.86 357.266 22.592 357.266 23.768C357.266 24.992 356.27 26.12 353.894 26.12Z" fill="black"/>
<path d="M375.052 23H373.42V21.14H375.052V23Z" fill="black"/>
<path d="M395.2 26H393.292L391.168 17.96H392.608L393.916 23.048L394.276 24.752H394.372L394.804 23.048L396.424 17.96H398.308L400.036 23.048L400.492 24.752H400.588L400.924 23.048L402.124 17.96H403.54L401.524 26H399.616L397.996 21.32L397.408 19.256H397.3L396.724 21.32L395.2 26ZM412.235 26H405.803V17.96H412.235V19.124H407.099V21.38H412.055V22.532H407.099V24.836H412.235V26ZM419.353 26H414.685V17.96H419.185C420.721 17.96 421.645 18.668 421.645 19.94C421.645 20.888 421.117 21.596 419.893 21.74V21.824C421.261 21.98 421.933 22.724 421.933 23.78C421.933 25.16 421.009 26 419.353 26ZM415.969 19.124V21.332H419.005C419.905 21.332 420.361 20.984 420.361 20.228C420.361 19.472 419.941 19.124 419.041 19.124H415.969ZM415.969 22.4V24.836H419.209C420.169 24.836 420.637 24.476 420.637 23.6C420.637 22.76 420.157 22.4 419.209 22.4H415.969ZM431.555 26H427.895V17.96H431.555C434.051 17.96 435.623 19.496 435.623 21.98C435.623 24.464 434.051 26 431.555 26ZM431.555 19.124H429.179V24.836H431.555C433.415 24.836 434.255 24.044 434.255 21.98C434.255 19.916 433.415 19.124 431.555 19.124ZM439.384 26H438.088V17.96H439.384V26ZM445.456 26.12C443.056 26.12 441.832 25.064 441.832 23.372V23.3H443.128V23.492C443.128 24.452 443.692 24.932 445.456 24.932C446.992 24.932 447.532 24.596 447.532 23.84C447.532 23.144 447.124 22.88 446.104 22.688L444.136 22.364C442.78 22.124 441.82 21.5 441.82 20.18C441.82 19.016 442.78 17.84 445.276 17.84C447.628 17.84 448.696 19.016 448.696 20.588V20.66H447.412V20.504C447.412 19.52 446.824 19.028 445.156 19.028C443.692 19.028 443.116 19.388 443.116 20.108C443.116 20.804 443.524 21.032 444.472 21.236L446.428 21.572C448.036 21.86 448.828 22.592 448.828 23.768C448.828 24.992 447.832 26.12 445.456 26.12ZM455.16 26.12C452.664 26.12 451.008 24.488 451.008 21.98C451.008 19.472 452.664 17.84 455.16 17.84C457.428 17.84 459.012 19.04 459.012 20.96V21.128H457.584V20.96C457.584 19.736 456.804 19.076 455.172 19.076C453.288 19.076 452.376 19.976 452.376 21.98C452.376 23.984 453.288 24.872 455.172 24.872C456.804 24.872 457.584 24.224 457.584 22.988V22.832H459.012V22.988C459.012 24.92 457.44 26.12 455.16 26.12ZM465.187 26.12C462.787 26.12 461.419 24.848 461.419 22.664V17.96H462.703V22.58C462.703 24.2 463.423 24.872 465.187 24.872C466.951 24.872 467.671 24.2 467.671 22.58V17.96H468.967V22.664C468.967 24.848 467.599 26.12 465.187 26.12ZM474.988 26.12C472.588 26.12 471.364 25.064 471.364 23.372V23.3H472.66V23.492C472.66 24.452 473.224 24.932 474.988 24.932C476.524 24.932 477.064 24.596 477.064 23.84C477.064 23.144 476.656 22.88 475.636 22.688L473.668 22.364C472.312 22.124 471.352 21.5 471.352 20.18C471.352 19.016 472.312 17.84 474.808 17.84C477.16 17.84 478.228 19.016 478.228 20.588V20.66H476.944V20.504C476.944 19.52 476.356 19.028 474.688 19.028C473.224 19.028 472.648 19.388 472.648 20.108C472.648 20.804 473.056 21.032 474.004 21.236L475.96 21.572C477.568 21.86 478.36 22.592 478.36 23.768C478.36 24.992 477.364 26.12 474.988 26.12ZM484.152 26.12C481.752 26.12 480.528 25.064 480.528 23.372V23.3H481.824V23.492C481.824 24.452 482.388 24.932 484.152 24.932C485.688 24.932 486.228 24.596 486.228 23.84C486.228 23.144 485.82 22.88 484.8 22.688L482.832 22.364C481.476 22.124 480.516 21.5 480.516 20.18C480.516 19.016 481.476 17.84 483.972 17.84C486.324 17.84 487.392 19.016 487.392 20.588V20.66H486.108V20.504C486.108 19.52 485.52 19.028 483.852 19.028C482.388 19.028 481.812 19.388 481.812 20.108C481.812 20.804 482.22 21.032 483.168 21.236L485.124 21.572C486.732 21.86 487.524 22.592 487.524 23.768C487.524 24.992 486.528 26.12 484.152 26.12ZM496.867 26.12C494.467 26.12 493.243 25.064 493.243 23.372V23.3H494.539V23.492C494.539 24.452 495.103 24.932 496.867 24.932C498.403 24.932 498.943 24.596 498.943 23.84C498.943 23.144 498.535 22.88 497.515 22.688L495.547 22.364C494.191 22.124 493.231 21.5 493.231 20.18C493.231 19.016 494.191 17.84 496.687 17.84C499.039 17.84 500.107 19.016 500.107 20.588V20.66H498.823V20.504C498.823 19.52 498.235 19.028 496.567 19.028C495.103 19.028 494.527 19.388 494.527 20.108C494.527 20.804 494.935 21.032 495.883 21.236L497.839 21.572C499.447 21.86 500.239 22.592 500.239 23.768C500.239 24.992 499.243 26.12 496.867 26.12ZM506.571 26.12C504.075 26.12 502.419 24.488 502.419 21.98C502.419 19.472 504.075 17.84 506.571 17.84C508.839 17.84 510.423 19.04 510.423 20.96V21.128H508.995V20.96C508.995 19.736 508.215 19.076 506.583 19.076C504.699 19.076 503.787 19.976 503.787 21.98C503.787 23.984 504.699 24.872 506.583 24.872C508.215 24.872 508.995 24.224 508.995 22.988V22.832H510.423V22.988C510.423 24.92 508.851 26.12 506.571 26.12ZM513.717 26H512.277L515.865 17.96H517.689L521.277 26H519.813L518.889 23.912H514.641L513.717 26ZM516.249 20.3L515.157 22.748H518.373L517.281 20.3L516.813 19.16H516.717L516.249 20.3ZM529.629 26H523.377V17.96H524.673V24.836H529.629V26ZM538.399 26H531.967V17.96H538.399V19.124H533.263V21.38H538.219V22.532H533.263V24.836H538.399V26ZM548.587 26H547.303V23.228L543.775 17.96H545.359L547.255 20.816L547.927 21.836H548.023L548.683 20.816L550.567 17.96H552.163L548.587 23.252V26ZM558.111 26.12C555.591 26.12 553.923 24.488 553.923 21.98C553.923 19.472 555.591 17.84 558.111 17.84C560.655 17.84 562.311 19.472 562.311 21.98C562.311 24.488 560.655 26.12 558.111 26.12ZM558.111 24.872C560.019 24.872 560.943 23.984 560.943 21.98C560.943 19.976 560.019 19.076 558.111 19.076C556.203 19.076 555.291 19.976 555.291 21.98C555.291 23.984 556.203 24.872 558.111 24.872ZM568.488 26.12C566.088 26.12 564.72 24.848 564.72 22.664V17.96H566.004V22.58C566.004 24.2 566.724 24.872 568.488 24.872C570.252 24.872 570.972 24.2 570.972 22.58V17.96H572.268V22.664C572.268 24.848 570.9 26.12 568.488 26.12ZM576.212 26H574.916V17.96H579.092C580.916 17.96 582.044 18.824 582.044 20.324C582.044 21.656 581.168 22.472 579.656 22.556V22.64C580.28 22.808 580.568 23.168 580.856 23.672L582.2 26H580.712L579.428 23.78C579.068 23.144 578.696 22.88 577.688 22.88H576.212V26ZM576.212 19.124V21.884H579.08C580.16 21.884 580.7 21.512 580.7 20.504C580.7 19.52 580.16 19.124 579.08 19.124H576.212ZM592.638 26H587.97V17.96H592.47C594.006 17.96 594.93 18.668 594.93 19.94C594.93 20.888 594.402 21.596 593.178 21.74V21.824C594.546 21.98 595.218 22.724 595.218 23.78C595.218 25.16 594.294 26 592.638 26ZM589.254 19.124V21.332H592.29C593.19 21.332 593.646 20.984 593.646 20.228C593.646 19.472 593.226 19.124 592.326 19.124H589.254ZM589.254 22.4V24.836H592.494C593.454 24.836 593.922 24.476 593.922 23.6C593.922 22.76 593.442 22.4 592.494 22.4H589.254ZM601.277 26.12C598.877 26.12 597.509 24.848 597.509 22.664V17.96H598.793V22.58C598.793 24.2 599.513 24.872 601.277 24.872C603.041 24.872 603.761 24.2 603.761 22.58V17.96H605.057V22.664C605.057 24.848 603.689 26.12 601.277 26.12ZM611.077 26.12C608.677 26.12 607.453 25.064 607.453 23.372V23.3H608.749V23.492C608.749 24.452 609.313 24.932 611.077 24.932C612.613 24.932 613.153 24.596 613.153 23.84C613.153 23.144 612.745 22.88 611.725 22.688L609.757 22.364C608.401 22.124 607.441 21.5 607.441 20.18C607.441 19.016 608.401 17.84 610.897 17.84C613.249 17.84 614.317 19.016 614.317 20.588V20.66H613.033V20.504C613.033 19.52 612.445 19.028 610.777 19.028C609.313 19.028 608.737 19.388 608.737 20.108C608.737 20.804 609.145 21.032 610.093 21.236L612.049 21.572C613.657 21.86 614.449 22.592 614.449 23.768C614.449 24.992 613.453 26.12 611.077 26.12ZM618.166 26H616.87V17.96H618.166V26ZM622.162 26H620.866V17.96H622.258L625.858 22.664L626.902 24.164H626.998L626.938 22.712V17.96H628.234V26H626.842L623.218 21.308L622.21 19.892H622.114L622.162 21.284V26ZM637.364 26H630.932V17.96H637.364V19.124H632.228V21.38H637.184V22.532H632.228V24.836H637.364V26ZM643.245 26.12C640.845 26.12 639.621 25.064 639.621 23.372V23.3H640.917V23.492C640.917 24.452 641.481 24.932 643.245 24.932C644.781 24.932 645.321 24.596 645.321 23.84C645.321 23.144 644.913 22.88 643.893 22.688L641.925 22.364C640.569 22.124 639.609 21.5 639.609 20.18C639.609 19.016 640.569 17.84 643.065 17.84C645.417 17.84 646.485 19.016 646.485 20.588V20.66H645.201V20.504C645.201 19.52 644.613 19.028 642.945 19.028C641.481 19.028 640.905 19.388 640.905 20.108C640.905 20.804 641.313 21.032 642.261 21.236L644.217 21.572C645.825 21.86 646.617 22.592 646.617 23.768C646.617 24.992 645.621 26.12 643.245 26.12ZM652.41 26.12C650.01 26.12 648.786 25.064 648.786 23.372V23.3H650.082V23.492C650.082 24.452 650.646 24.932 652.41 24.932C653.946 24.932 654.486 24.596 654.486 23.84C654.486 23.144 654.078 22.88 653.058 22.688L651.09 22.364C649.734 22.124 648.774 21.5 648.774 20.18C648.774 19.016 649.734 17.84 652.23 17.84C654.582 17.84 655.65 19.016 655.65 20.588V20.66H654.366V20.504C654.366 19.52 653.778 19.028 652.11 19.028C650.646 19.028 650.07 19.388 650.07 20.108C650.07 20.804 650.478 21.032 651.426 21.236L653.382 21.572C654.99 21.86 655.782 22.592 655.782 23.768C655.782 24.992 654.786 26.12 652.41 26.12ZM665.7 26.12C663.18 26.12 661.512 24.488 661.512 21.98C661.512 19.472 663.18 17.84 665.7 17.84C668.244 17.84 669.9 19.472 669.9 21.98C669.9 24.488 668.244 26.12 665.7 26.12ZM665.7 24.872C667.608 24.872 668.532 23.984 668.532 21.98C668.532 19.976 667.608 19.076 665.7 19.076C663.792 19.076 662.88 19.976 662.88 21.98C662.88 23.984 663.792 24.872 665.7 24.872ZM673.654 26H672.358V17.96H676.534C678.358 17.96 679.486 18.824 679.486 20.324C679.486 21.656 678.61 22.472 677.098 22.556V22.64C677.722 22.808 678.01 23.168 678.298 23.672L679.642 26H678.154L676.87 23.78C676.51 23.144 676.138 22.88 675.13 22.88H673.654V26ZM673.654 19.124V21.884H676.522C677.602 21.884 678.142 21.512 678.142 20.504C678.142 19.52 677.602 19.124 676.522 19.124H673.654ZM689.599 26H688.315V23.228L684.787 17.96H686.371L688.267 20.816L688.939 21.836H689.035L689.695 20.816L691.579 17.96H693.175L689.599 23.252V26ZM699.122 26.12C696.602 26.12 694.934 24.488 694.934 21.98C694.934 19.472 696.602 17.84 699.122 17.84C701.666 17.84 703.322 19.472 703.322 21.98C703.322 24.488 701.666 26.12 699.122 26.12ZM699.122 24.872C701.03 24.872 701.954 23.984 701.954 21.98C701.954 19.976 701.03 19.076 699.122 19.076C697.214 19.076 696.302 19.976 696.302 21.98C696.302 23.984 697.214 24.872 699.122 24.872ZM709.5 26.12C707.1 26.12 705.732 24.848 705.732 22.664V17.96H707.016V22.58C707.016 24.2 707.736 24.872 709.5 24.872C711.264 24.872 711.984 24.2 711.984 22.58V17.96H713.28V22.664C713.28 24.848 711.912 26.12 709.5 26.12ZM717.224 26H715.928V17.96H720.104C721.928 17.96 723.056 18.824 723.056 20.324C723.056 21.656 722.18 22.472 720.668 22.556V22.64C721.292 22.808 721.58 23.168 721.868 23.672L723.212 26H721.724L720.44 23.78C720.08 23.144 719.708 22.88 718.7 22.88H717.224V26ZM717.224 19.124V21.884H720.092C721.172 21.884 721.712 21.512 721.712 20.504C721.712 19.52 721.172 19.124 720.092 19.124H717.224ZM730.337 26H729.041V17.96H730.337V26ZM736.77 26H733.11V17.96H736.77C739.266 17.96 740.838 19.496 740.838 21.98C740.838 24.464 739.266 26 736.77 26ZM736.77 19.124H734.394V24.836H736.77C738.63 24.836 739.47 24.044 739.47 21.98C739.47 19.916 738.63 19.124 736.77 19.124ZM749.735 26H743.303V17.96H749.735V19.124H744.599V21.38H749.555V22.532H744.599V24.836H749.735V26ZM753.085 26H751.645L755.233 17.96H757.057L760.645 26H759.181L758.257 23.912H754.009L753.085 26ZM755.617 20.3L754.525 22.748H757.741L756.649 20.3L756.181 19.16H756.085L755.617 20.3ZM766.117 26.12C763.717 26.12 762.493 25.064 762.493 23.372V23.3H763.789V23.492C763.789 24.452 764.353 24.932 766.117 24.932C767.653 24.932 768.193 24.596 768.193 23.84C768.193 23.144 767.785 22.88 766.765 22.688L764.797 22.364C763.441 22.124 762.481 21.5 762.481 20.18C762.481 19.016 763.441 17.84 765.937 17.84C768.289 17.84 769.357 19.016 769.357 20.588V20.66H768.073V20.504C768.073 19.52 767.485 19.028 765.817 19.028C764.353 19.028 763.777 19.388 763.777 20.108C763.777 20.804 764.185 21.032 765.133 21.236L767.089 21.572C768.697 21.86 769.489 22.592 769.489 23.768C769.489 24.992 768.493 26.12 766.117 26.12Z" fill="black"/>
<path d="M787.052 23H785.42V21.14H787.052V23Z" fill="black"/>
<path d="M807.332 26H803.672V17.96H807.332C809.828 17.96 811.4 19.496 811.4 21.98C811.4 24.464 809.828 26 807.332 26ZM807.332 19.124H804.956V24.836H807.332C809.192 24.836 810.032 24.044 810.032 21.98C810.032 19.916 809.192 19.124 807.332 19.124ZM815.162 26H813.866V17.96H815.162V26ZM821.234 26.12C818.834 26.12 817.61 25.064 817.61 23.372V23.3H818.906V23.492C818.906 24.452 819.47 24.932 821.234 24.932C822.77 24.932 823.31 24.596 823.31 23.84C823.31 23.144 822.902 22.88 821.882 22.688L819.914 22.364C818.558 22.124 817.598 21.5 817.598 20.18C817.598 19.016 818.558 17.84 821.054 17.84C823.406 17.84 824.474 19.016 824.474 20.588V20.66H823.19V20.504C823.19 19.52 822.602 19.028 820.934 19.028C819.47 19.028 818.894 19.388 818.894 20.108C818.894 20.804 819.302 21.032 820.25 21.236L822.206 21.572C823.814 21.86 824.606 22.592 824.606 23.768C824.606 24.992 823.61 26.12 821.234 26.12ZM830.938 26.12C828.442 26.12 826.786 24.488 826.786 21.98C826.786 19.472 828.442 17.84 830.938 17.84C833.206 17.84 834.79 19.04 834.79 20.96V21.128H833.362V20.96C833.362 19.736 832.582 19.076 830.95 19.076C829.066 19.076 828.154 19.976 828.154 21.98C828.154 23.984 829.066 24.872 830.95 24.872C832.582 24.872 833.362 24.224 833.362 22.988V22.832H834.79V22.988C834.79 24.92 833.218 26.12 830.938 26.12ZM840.965 26.12C838.565 26.12 837.197 24.848 837.197 22.664V17.96H838.481V22.58C838.481 24.2 839.201 24.872 840.965 24.872C842.729 24.872 843.449 24.2 843.449 22.58V17.96H844.745V22.664C844.745 24.848 843.377 26.12 840.965 26.12ZM850.765 26.12C848.365 26.12 847.141 25.064 847.141 23.372V23.3H848.437V23.492C848.437 24.452 849.001 24.932 850.765 24.932C852.301 24.932 852.841 24.596 852.841 23.84C852.841 23.144 852.433 22.88 851.413 22.688L849.445 22.364C848.089 22.124 847.129 21.5 847.129 20.18C847.129 19.016 848.089 17.84 850.585 17.84C852.937 17.84 854.005 19.016 854.005 20.588V20.66H852.721V20.504C852.721 19.52 852.133 19.028 850.465 19.028C849.001 19.028 848.425 19.388 848.425 20.108C848.425 20.804 848.833 21.032 849.781 21.236L851.737 21.572C853.345 21.86 854.137 22.592 854.137 23.768C854.137 24.992 853.141 26.12 850.765 26.12ZM859.929 26.12C857.529 26.12 856.305 25.064 856.305 23.372V23.3H857.601V23.492C857.601 24.452 858.165 24.932 859.929 24.932C861.465 24.932 862.005 24.596 862.005 23.84C862.005 23.144 861.597 22.88 860.577 22.688L858.609 22.364C857.253 22.124 856.293 21.5 856.293 20.18C856.293 19.016 857.253 17.84 859.749 17.84C862.101 17.84 863.169 19.016 863.169 20.588V20.66H861.885V20.504C861.885 19.52 861.297 19.028 859.629 19.028C858.165 19.028 857.589 19.388 857.589 20.108C857.589 20.804 857.997 21.032 858.945 21.236L860.901 21.572C862.509 21.86 863.301 22.592 863.301 23.768C863.301 24.992 862.305 26.12 859.929 26.12ZM872.644 26.12C870.244 26.12 869.02 25.064 869.02 23.372V23.3H870.316V23.492C870.316 24.452 870.88 24.932 872.644 24.932C874.18 24.932 874.72 24.596 874.72 23.84C874.72 23.144 874.312 22.88 873.292 22.688L871.324 22.364C869.968 22.124 869.008 21.5 869.008 20.18C869.008 19.016 869.968 17.84 872.464 17.84C874.816 17.84 875.884 19.016 875.884 20.588V20.66H874.6V20.504C874.6 19.52 874.012 19.028 872.344 19.028C870.88 19.028 870.304 19.388 870.304 20.108C870.304 20.804 870.712 21.032 871.66 21.236L873.616 21.572C875.224 21.86 876.016 22.592 876.016 23.768C876.016 24.992 875.02 26.12 872.644 26.12ZM882.348 26.12C879.852 26.12 878.196 24.488 878.196 21.98C878.196 19.472 879.852 17.84 882.348 17.84C884.616 17.84 886.2 19.04 886.2 20.96V21.128H884.772V20.96C884.772 19.736 883.992 19.076 882.36 19.076C880.476 19.076 879.564 19.976 879.564 21.98C879.564 23.984 880.476 24.872 882.36 24.872C883.992 24.872 884.772 24.224 884.772 22.988V22.832H886.2V22.988C886.2 24.92 884.628 26.12 882.348 26.12ZM889.495 26H888.055L891.643 17.96H893.467L897.055 26H895.591L894.667 23.912H890.419L889.495 26ZM892.027 20.3L890.935 22.748H894.151L893.059 20.3L892.591 19.16H892.495L892.027 20.3ZM905.407 26H899.155V17.96H900.451V24.836H905.407V26ZM914.177 26H907.745V17.96H914.177V19.124H909.041V21.38H913.997V22.532H909.041V24.836H914.177V26ZM924.365 26H923.081V23.228L919.553 17.96H921.137L923.033 20.816L923.705 21.836H923.801L924.461 20.816L926.345 17.96H927.941L924.365 23.252V26ZM933.888 26.12C931.368 26.12 929.7 24.488 929.7 21.98C929.7 19.472 931.368 17.84 933.888 17.84C936.432 17.84 938.088 19.472 938.088 21.98C938.088 24.488 936.432 26.12 933.888 26.12ZM933.888 24.872C935.796 24.872 936.72 23.984 936.72 21.98C936.72 19.976 935.796 19.076 933.888 19.076C931.98 19.076 931.068 19.976 931.068 21.98C931.068 23.984 931.98 24.872 933.888 24.872ZM944.265 26.12C941.865 26.12 940.497 24.848 940.497 22.664V17.96H941.781V22.58C941.781 24.2 942.501 24.872 944.265 24.872C946.029 24.872 946.749 24.2 946.749 22.58V17.96H948.045V22.664C948.045 24.848 946.677 26.12 944.265 26.12ZM951.99 26H950.694V17.96H954.87C956.694 17.96 957.822 18.824 957.822 20.324C957.822 21.656 956.946 22.472 955.434 22.556V22.64C956.058 22.808 956.346 23.168 956.634 23.672L957.978 26H956.49L955.206 23.78C954.846 23.144 954.474 22.88 953.466 22.88H951.99V26ZM951.99 19.124V21.884H954.858C955.938 21.884 956.478 21.512 956.478 20.504C956.478 19.52 955.938 19.124 954.858 19.124H951.99ZM968.415 26H963.747V17.96H968.247C969.783 17.96 970.707 18.668 970.707 19.94C970.707 20.888 970.179 21.596 968.955 21.74V21.824C970.323 21.98 970.995 22.724 970.995 23.78C970.995 25.16 970.071 26 968.415 26ZM965.031 19.124V21.332H968.067C968.967 21.332 969.423 20.984 969.423 20.228C969.423 19.472 969.003 19.124 968.103 19.124H965.031ZM965.031 22.4V24.836H968.271C969.231 24.836 969.699 24.476 969.699 23.6C969.699 22.76 969.219 22.4 968.271 22.4H965.031ZM977.054 26.12C974.654 26.12 973.286 24.848 973.286 22.664V17.96H974.57V22.58C974.57 24.2 975.29 24.872 977.054 24.872C978.818 24.872 979.538 24.2 979.538 22.58V17.96H980.834V22.664C980.834 24.848 979.466 26.12 977.054 26.12ZM986.855 26.12C984.455 26.12 983.231 25.064 983.231 23.372V23.3H984.527V23.492C984.527 24.452 985.091 24.932 986.855 24.932C988.391 24.932 988.931 24.596 988.931 23.84C988.931 23.144 988.523 22.88 987.503 22.688L985.535 22.364C984.179 22.124 983.219 21.5 983.219 20.18C983.219 19.016 984.179 17.84 986.675 17.84C989.027 17.84 990.095 19.016 990.095 20.588V20.66H988.811V20.504C988.811 19.52 988.223 19.028 986.555 19.028C985.091 19.028 984.515 19.388 984.515 20.108C984.515 20.804 984.923 21.032 985.871 21.236L987.827 21.572C989.435 21.86 990.227 22.592 990.227 23.768C990.227 24.992 989.231 26.12 986.855 26.12ZM993.943 26H992.647V17.96H993.943V26ZM997.939 26H996.643V17.96H998.035L1001.63 22.664L1002.68 24.164H1002.77L1002.71 22.712V17.96H1004.01V26H1002.62L998.995 21.308L997.987 19.892H997.891L997.939 21.284V26ZM1013.14 26H1006.71V17.96H1013.14V19.124H1008.01V21.38H1012.96V22.532H1008.01V24.836H1013.14V26ZM1019.02 26.12C1016.62 26.12 1015.4 25.064 1015.4 23.372V23.3H1016.69V23.492C1016.69 24.452 1017.26 24.932 1019.02 24.932C1020.56 24.932 1021.1 24.596 1021.1 23.84C1021.1 23.144 1020.69 22.88 1019.67 22.688L1017.7 22.364C1016.35 22.124 1015.39 21.5 1015.39 20.18C1015.39 19.016 1016.35 17.84 1018.84 17.84C1021.19 17.84 1022.26 19.016 1022.26 20.588V20.66H1020.98V20.504C1020.98 19.52 1020.39 19.028 1018.72 19.028C1017.26 19.028 1016.68 19.388 1016.68 20.108C1016.68 20.804 1017.09 21.032 1018.04 21.236L1019.99 21.572C1021.6 21.86 1022.39 22.592 1022.39 23.768C1022.39 24.992 1021.4 26.12 1019.02 26.12ZM1028.19 26.12C1025.79 26.12 1024.56 25.064 1024.56 23.372V23.3H1025.86V23.492C1025.86 24.452 1026.42 24.932 1028.19 24.932C1029.72 24.932 1030.26 24.596 1030.26 23.84C1030.26 23.144 1029.85 22.88 1028.83 22.688L1026.87 22.364C1025.51 22.124 1024.55 21.5 1024.55 20.18C1024.55 19.016 1025.51 17.84 1028.01 17.84C1030.36 17.84 1031.43 19.016 1031.43 20.588V20.66H1030.14V20.504C1030.14 19.52 1029.55 19.028 1027.89 19.028C1026.42 19.028 1025.85 19.388 1025.85 20.108C1025.85 20.804 1026.25 21.032 1027.2 21.236L1029.16 21.572C1030.77 21.86 1031.56 22.592 1031.56 23.768C1031.56 24.992 1030.56 26.12 1028.19 26.12ZM1041.48 26.12C1038.96 26.12 1037.29 24.488 1037.29 21.98C1037.29 19.472 1038.96 17.84 1041.48 17.84C1044.02 17.84 1045.68 19.472 1045.68 21.98C1045.68 24.488 1044.02 26.12 1041.48 26.12ZM1041.48 24.872C1043.39 24.872 1044.31 23.984 1044.31 21.98C1044.31 19.976 1043.39 19.076 1041.48 19.076C1039.57 19.076 1038.66 19.976 1038.66 21.98C1038.66 23.984 1039.57 24.872 1041.48 24.872ZM1049.43 26H1048.14V17.96H1052.31C1054.14 17.96 1055.26 18.824 1055.26 20.324C1055.26 21.656 1054.39 22.472 1052.88 22.556V22.64C1053.5 22.808 1053.79 23.168 1054.08 23.672L1055.42 26H1053.93L1052.65 23.78C1052.29 23.144 1051.92 22.88 1050.91 22.88H1049.43V26ZM1049.43 19.124V21.884H1052.3C1053.38 21.884 1053.92 21.512 1053.92 20.504C1053.92 19.52 1053.38 19.124 1052.3 19.124H1049.43ZM1065.38 26H1064.09V23.228L1060.56 17.96H1062.15L1064.04 20.816L1064.72 21.836H1064.81L1065.47 20.816L1067.36 17.96H1068.95L1065.38 23.252V26ZM1074.9 26.12C1072.38 26.12 1070.71 24.488 1070.71 21.98C1070.71 19.472 1072.38 17.84 1074.9 17.84C1077.44 17.84 1079.1 19.472 1079.1 21.98C1079.1 24.488 1077.44 26.12 1074.9 26.12ZM1074.9 24.872C1076.81 24.872 1077.73 23.984 1077.73 21.98C1077.73 19.976 1076.81 19.076 1074.9 19.076C1072.99 19.076 1072.08 19.976 1072.08 21.98C1072.08 23.984 1072.99 24.872 1074.9 24.872ZM1085.28 26.12C1082.88 26.12 1081.51 24.848 1081.51 22.664V17.96H1082.79V22.58C1082.79 24.2 1083.51 24.872 1085.28 24.872C1087.04 24.872 1087.76 24.2 1087.76 22.58V17.96H1089.06V22.664C1089.06 24.848 1087.69 26.12 1085.28 26.12ZM1093 26H1091.71V17.96H1095.88C1097.71 17.96 1098.83 18.824 1098.83 20.324C1098.83 21.656 1097.96 22.472 1096.45 22.556V22.64C1097.07 22.808 1097.36 23.168 1097.65 23.672L1098.99 26H1097.5L1096.22 23.78C1095.86 23.144 1095.49 22.88 1094.48 22.88H1093V26ZM1093 19.124V21.884H1095.87C1096.95 21.884 1097.49 21.512 1097.49 20.504C1097.49 19.52 1096.95 19.124 1095.87 19.124H1093ZM1106.11 26H1104.82V17.96H1106.11V26ZM1112.55 26H1108.89V17.96H1112.55C1115.04 17.96 1116.61 19.496 1116.61 21.98C1116.61 24.464 1115.04 26 1112.55 26ZM1112.55 19.124H1110.17V24.836H1112.55C1114.41 24.836 1115.25 24.044 1115.25 21.98C1115.25 19.916 1114.41 19.124 1112.55 19.124ZM1125.51 26H1119.08V17.96H1125.51V19.124H1120.38V21.38H1125.33V22.532H1120.38V24.836H1125.51V26ZM1128.86 26H1127.42L1131.01 17.96H1132.83L1136.42 26H1134.96L1134.03 23.912H1129.79L1128.86 26ZM1131.39 20.3L1130.3 22.748H1133.52L1132.43 20.3L1131.96 19.16H1131.86L1131.39 20.3ZM1141.89 26.12C1139.49 26.12 1138.27 25.064 1138.27 23.372V23.3H1139.57V23.492C1139.57 24.452 1140.13 24.932 1141.89 24.932C1143.43 24.932 1143.97 24.596 1143.97 23.84C1143.97 23.144 1143.56 22.88 1142.54 22.688L1140.57 22.364C1139.22 22.124 1138.26 21.5 1138.26 20.18C1138.26 19.016 1139.22 17.84 1141.71 17.84C1144.07 17.84 1145.13 19.016 1145.13 20.588V20.66H1143.85V20.504C1143.85 19.52 1143.26 19.028 1141.59 19.028C1140.13 19.028 1139.55 19.388 1139.55 20.108C1139.55 20.804 1139.96 21.032 1140.91 21.236L1142.87 21.572C1144.47 21.86 1145.27 22.592 1145.27 23.768C1145.27 24.992 1144.27 26.12 1141.89 26.12Z" fill="black"/>
<path d="M1163.05 23H1161.42V21.14H1163.05V23Z" fill="black"/>
<path d="M1183.33 26H1179.67V17.96H1183.33C1185.83 17.96 1187.4 19.496 1187.4 21.98C1187.4 24.464 1185.83 26 1183.33 26ZM1183.33 19.124H1180.96V24.836H1183.33C1185.19 24.836 1186.03 24.044 1186.03 21.98C1186.03 19.916 1185.19 19.124 1183.33 19.124ZM1191.16 26H1189.87V17.96H1191.16V26ZM1197.23 26.12C1194.83 26.12 1193.61 25.064 1193.61 23.372V23.3H1194.91V23.492C1194.91 24.452 1195.47 24.932 1197.23 24.932C1198.77 24.932 1199.31 24.596 1199.31 23.84C1199.31 23.144 1198.9 22.88 1197.88 22.688L1195.91 22.364C1194.56 22.124 1193.6 21.5 1193.6 20.18C1193.6 19.016 1194.56 17.84 1197.05 17.84C1199.41 17.84 1200.47 19.016 1200.47 20.588V20.66H1199.19V20.504C1199.19 19.52 1198.6 19.028 1196.93 19.028C1195.47 19.028 1194.89 19.388 1194.89 20.108C1194.89 20.804 1195.3 21.032 1196.25 21.236L1198.21 21.572C1199.81 21.86 1200.61 22.592 1200.61 23.768C1200.61 24.992 1199.61 26.12 1197.23 26.12ZM1206.94 26.12C1204.44 26.12 1202.79 24.488 1202.79 21.98C1202.79 19.472 1204.44 17.84 1206.94 17.84C1209.21 17.84 1210.79 19.04 1210.79 20.96V21.128H1209.36V20.96C1209.36 19.736 1208.58 19.076 1206.95 19.076C1205.07 19.076 1204.15 19.976 1204.15 21.98C1204.15 23.984 1205.07 24.872 1206.95 24.872C1208.58 24.872 1209.36 24.224 1209.36 22.988V22.832H1210.79V22.988C1210.79 24.92 1209.22 26.12 1206.94 26.12ZM1216.96 26.12C1214.56 26.12 1213.2 24.848 1213.2 22.664V17.96H1214.48V22.58C1214.48 24.2 1215.2 24.872 1216.96 24.872C1218.73 24.872 1219.45 24.2 1219.45 22.58V17.96H1220.74V22.664C1220.74 24.848 1219.38 26.12 1216.96 26.12ZM1226.76 26.12C1224.36 26.12 1223.14 25.064 1223.14 23.372V23.3H1224.44V23.492C1224.44 24.452 1225 24.932 1226.76 24.932C1228.3 24.932 1228.84 24.596 1228.84 23.84C1228.84 23.144 1228.43 22.88 1227.41 22.688L1225.44 22.364C1224.09 22.124 1223.13 21.5 1223.13 20.18C1223.13 19.016 1224.09 17.84 1226.58 17.84C1228.94 17.84 1230 19.016 1230 20.588V20.66H1228.72V20.504C1228.72 19.52 1228.13 19.028 1226.46 19.028C1225 19.028 1224.42 19.388 1224.42 20.108C1224.42 20.804 1224.83 21.032 1225.78 21.236L1227.74 21.572C1229.34 21.86 1230.14 22.592 1230.14 23.768C1230.14 24.992 1229.14 26.12 1226.76 26.12ZM1235.93 26.12C1233.53 26.12 1232.31 25.064 1232.31 23.372V23.3H1233.6V23.492C1233.6 24.452 1234.17 24.932 1235.93 24.932C1237.47 24.932 1238.01 24.596 1238.01 23.84C1238.01 23.144 1237.6 22.88 1236.58 22.688L1234.61 22.364C1233.25 22.124 1232.29 21.5 1232.29 20.18C1232.29 19.016 1233.25 17.84 1235.75 17.84C1238.1 17.84 1239.17 19.016 1239.17 20.588V20.66H1237.89V20.504C1237.89 19.52 1237.3 19.028 1235.63 19.028C1234.17 19.028 1233.59 19.388 1233.59 20.108C1233.59 20.804 1234 21.032 1234.95 21.236L1236.9 21.572C1238.51 21.86 1239.3 22.592 1239.3 23.768C1239.3 24.992 1238.31 26.12 1235.93 26.12ZM1248.64 26.12C1246.24 26.12 1245.02 25.064 1245.02 23.372V23.3H1246.32V23.492C1246.32 24.452 1246.88 24.932 1248.64 24.932C1250.18 24.932 1250.72 24.596 1250.72 23.84C1250.72 23.144 1250.31 22.88 1249.29 22.688L1247.32 22.364C1245.97 22.124 1245.01 21.5 1245.01 20.18C1245.01 19.016 1245.97 17.84 1248.46 17.84C1250.82 17.84 1251.88 19.016 1251.88 20.588V20.66H1250.6V20.504C1250.6 19.52 1250.01 19.028 1248.34 19.028C1246.88 19.028 1246.3 19.388 1246.3 20.108C1246.3 20.804 1246.71 21.032 1247.66 21.236L1249.62 21.572C1251.22 21.86 1252.02 22.592 1252.02 23.768C1252.02 24.992 1251.02 26.12 1248.64 26.12ZM1258.35 26.12C1255.85 26.12 1254.2 24.488 1254.2 21.98C1254.2 19.472 1255.85 17.84 1258.35 17.84C1260.62 17.84 1262.2 19.04 1262.2 20.96V21.128H1260.77V20.96C1260.77 19.736 1259.99 19.076 1258.36 19.076C1256.48 19.076 1255.56 19.976 1255.56 21.98C1255.56 23.984 1256.48 24.872 1258.36 24.872C1259.99 24.872 1260.77 24.224 1260.77 22.988V22.832H1262.2V22.988C1262.2 24.92 1260.63 26.12 1258.35 26.12ZM1265.49 26H1264.05L1267.64 17.96H1269.47L1273.05 26H1271.59L1270.67 23.912H1266.42L1265.49 26ZM1268.03 20.3L1266.93 22.748H1270.15L1269.06 20.3L1268.59 19.16H1268.49L1268.03 20.3ZM1281.41 26H1275.15V17.96H1276.45V24.836H1281.41V26ZM1290.18 26H1283.74V17.96H1290.18V19.124H1285.04V21.38H1290V22.532H1285.04V24.836H1290.18V26ZM1300.36 26H1299.08V23.228L1295.55 17.96H1297.14L1299.03 20.816L1299.7 21.836H1299.8L1300.46 20.816L1302.34 17.96H1303.94L1300.36 23.252V26ZM1309.89 26.12C1307.37 26.12 1305.7 24.488 1305.7 21.98C1305.7 19.472 1307.37 17.84 1309.89 17.84C1312.43 17.84 1314.09 19.472 1314.09 21.98C1314.09 24.488 1312.43 26.12 1309.89 26.12ZM1309.89 24.872C1311.8 24.872 1312.72 23.984 1312.72 21.98C1312.72 19.976 1311.8 19.076 1309.89 19.076C1307.98 19.076 1307.07 19.976 1307.07 21.98C1307.07 23.984 1307.98 24.872 1309.89 24.872ZM1320.27 26.12C1317.87 26.12 1316.5 24.848 1316.5 22.664V17.96H1317.78V22.58C1317.78 24.2 1318.5 24.872 1320.27 24.872C1322.03 24.872 1322.75 24.2 1322.75 22.58V17.96H1324.05V22.664C1324.05 24.848 1322.68 26.12 1320.27 26.12ZM1327.99 26H1326.69V17.96H1330.87C1332.69 17.96 1333.82 18.824 1333.82 20.324C1333.82 21.656 1332.95 22.472 1331.43 22.556V22.64C1332.06 22.808 1332.35 23.168 1332.63 23.672L1333.98 26H1332.49L1331.21 23.78C1330.85 23.144 1330.47 22.88 1329.47 22.88H1327.99V26ZM1327.99 19.124V21.884H1330.86C1331.94 21.884 1332.48 21.512 1332.48 20.504C1332.48 19.52 1331.94 19.124 1330.86 19.124H1327.99ZM1344.42 26H1339.75V17.96H1344.25C1345.78 17.96 1346.71 18.668 1346.71 19.94C1346.71 20.888 1346.18 21.596 1344.96 21.74V21.824C1346.32 21.98 1347 22.724 1347 23.78C1347 25.16 1346.07 26 1344.42 26ZM1341.03 19.124V21.332H1344.07C1344.97 21.332 1345.42 20.984 1345.42 20.228C1345.42 19.472 1345 19.124 1344.1 19.124H1341.03ZM1341.03 22.4V24.836H1344.27C1345.23 24.836 1345.7 24.476 1345.7 23.6C1345.7 22.76 1345.22 22.4 1344.27 22.4H1341.03ZM1353.05 26.12C1350.65 26.12 1349.29 24.848 1349.29 22.664V17.96H1350.57V22.58C1350.57 24.2 1351.29 24.872 1353.05 24.872C1354.82 24.872 1355.54 24.2 1355.54 22.58V17.96H1356.83V22.664C1356.83 24.848 1355.47 26.12 1353.05 26.12ZM1362.85 26.12C1360.45 26.12 1359.23 25.064 1359.23 23.372V23.3H1360.53V23.492C1360.53 24.452 1361.09 24.932 1362.85 24.932C1364.39 24.932 1364.93 24.596 1364.93 23.84C1364.93 23.144 1364.52 22.88 1363.5 22.688L1361.53 22.364C1360.18 22.124 1359.22 21.5 1359.22 20.18C1359.22 19.016 1360.18 17.84 1362.67 17.84C1365.03 17.84 1366.09 19.016 1366.09 20.588V20.66H1364.81V20.504C1364.81 19.52 1364.22 19.028 1362.55 19.028C1361.09 19.028 1360.51 19.388 1360.51 20.108C1360.51 20.804 1360.92 21.032 1361.87 21.236L1363.83 21.572C1365.43 21.86 1366.23 22.592 1366.23 23.768C1366.23 24.992 1365.23 26.12 1362.85 26.12ZM1369.94 26H1368.65V17.96H1369.94V26ZM1373.94 26H1372.64V17.96H1374.03L1377.63 22.664L1378.68 24.164H1378.77L1378.71 22.712V17.96H1380.01V26H1378.62L1374.99 21.308L1373.99 19.892H1373.89L1373.94 21.284V26ZM1389.14 26H1382.71V17.96H1389.14V19.124H1384.01V21.38H1388.96V22.532H1384.01V24.836H1389.14V26ZM1395.02 26.12C1392.62 26.12 1391.4 25.064 1391.4 23.372V23.3H1392.69V23.492C1392.69 24.452 1393.26 24.932 1395.02 24.932C1396.56 24.932 1397.1 24.596 1397.1 23.84C1397.1 23.144 1396.69 22.88 1395.67 22.688L1393.7 22.364C1392.35 22.124 1391.39 21.5 1391.39 20.18C1391.39 19.016 1392.35 17.84 1394.84 17.84C1397.19 17.84 1398.26 19.016 1398.26 20.588V20.66H1396.98V20.504C1396.98 19.52 1396.39 19.028 1394.72 19.028C1393.26 19.028 1392.68 19.388 1392.68 20.108C1392.68 20.804 1393.09 21.032 1394.04 21.236L1395.99 21.572C1397.6 21.86 1398.39 22.592 1398.39 23.768C1398.39 24.992 1397.4 26.12 1395.02 26.12ZM1404.19 26.12C1401.79 26.12 1400.56 25.064 1400.56 23.372V23.3H1401.86V23.492C1401.86 24.452 1402.42 24.932 1404.19 24.932C1405.72 24.932 1406.26 24.596 1406.26 23.84C1406.26 23.144 1405.85 22.88 1404.83 22.688L1402.87 22.364C1401.51 22.124 1400.55 21.5 1400.55 20.18C1400.55 19.016 1401.51 17.84 1404.01 17.84C1406.36 17.84 1407.43 19.016 1407.43 20.588V20.66H1406.14V20.504C1406.14 19.52 1405.55 19.028 1403.89 19.028C1402.42 19.028 1401.85 19.388 1401.85 20.108C1401.85 20.804 1402.25 21.032 1403.2 21.236L1405.16 21.572C1406.77 21.86 1407.56 22.592 1407.56 23.768C1407.56 24.992 1406.56 26.12 1404.19 26.12ZM1417.48 26.12C1414.96 26.12 1413.29 24.488 1413.29 21.98C1413.29 19.472 1414.96 17.84 1417.48 17.84C1420.02 17.84 1421.68 19.472 1421.68 21.98C1421.68 24.488 1420.02 26.12 1417.48 26.12ZM1417.48 24.872C1419.39 24.872 1420.31 23.984 1420.31 21.98C1420.31 19.976 1419.39 19.076 1417.48 19.076C1415.57 19.076 1414.66 19.976 1414.66 21.98C1414.66 23.984 1415.57 24.872 1417.48 24.872ZM1425.43 26H1424.14V17.96H1428.31C1430.14 17.96 1431.26 18.824 1431.26 20.324C1431.26 21.656 1430.39 22.472 1428.88 22.556V22.64C1429.5 22.808 1429.79 23.168 1430.08 23.672L1431.42 26H1429.93L1428.65 23.78C1428.29 23.144 1427.92 22.88 1426.91 22.88H1425.43V26ZM1425.43 19.124V21.884H1428.3C1429.38 21.884 1429.92 21.512 1429.92 20.504C1429.92 19.52 1429.38 19.124 1428.3 19.124H1425.43ZM1441.38 26H1440.09V23.228L1436.56 17.96H1438.15L1440.04 20.816L1440.72 21.836H1440.81L1441.47 20.816L1443.36 17.96H1444.95L1441.38 23.252V26ZM1450.9 26.12C1448.38 26.12 1446.71 24.488 1446.71 21.98C1446.71 19.472 1448.38 17.84 1450.9 17.84C1453.44 17.84 1455.1 19.472 1455.1 21.98C1455.1 24.488 1453.44 26.12 1450.9 26.12ZM1450.9 24.872C1452.81 24.872 1453.73 23.984 1453.73 21.98C1453.73 19.976 1452.81 19.076 1450.9 19.076C1448.99 19.076 1448.08 19.976 1448.08 21.98C1448.08 23.984 1448.99 24.872 1450.9 24.872ZM1461.28 26.12C1458.88 26.12 1457.51 24.848 1457.51 22.664V17.96H1458.79V22.58C1458.79 24.2 1459.51 24.872 1461.28 24.872C1463.04 24.872 1463.76 24.2 1463.76 22.58V17.96H1465.06V22.664C1465.06 24.848 1463.69 26.12 1461.28 26.12ZM1469 26H1467.71V17.96H1471.88C1473.71 17.96 1474.83 18.824 1474.83 20.324C1474.83 21.656 1473.96 22.472 1472.45 22.556V22.64C1473.07 22.808 1473.36 23.168 1473.65 23.672L1474.99 26H1473.5L1472.22 23.78C1471.86 23.144 1471.49 22.88 1470.48 22.88H1469V26ZM1469 19.124V21.884H1471.87C1472.95 21.884 1473.49 21.512 1473.49 20.504C1473.49 19.52 1472.95 19.124 1471.87 19.124H1469ZM1482.11 26H1480.82V17.96H1482.11V26ZM1488.55 26H1484.89V17.96H1488.55C1491.04 17.96 1492.61 19.496 1492.61 21.98C1492.61 24.464 1491.04 26 1488.55 26ZM1488.55 19.124H1486.17V24.836H1488.55C1490.41 24.836 1491.25 24.044 1491.25 21.98C1491.25 19.916 1490.41 19.124 1488.55 19.124ZM1501.51 26H1495.08V17.96H1501.51V19.124H1496.38V21.38H1501.33V22.532H1496.38V24.836H1501.51V26ZM1504.86 26H1503.42L1507.01 17.96H1508.83L1512.42 26H1510.96L1510.03 23.912H1505.79L1504.86 26ZM1507.39 20.3L1506.3 22.748H1509.52L1508.43 20.3L1507.96 19.16H1507.86L1507.39 20.3ZM1517.89 26.12C1515.49 26.12 1514.27 25.064 1514.27 23.372V23.3H1515.57V23.492C1515.57 24.452 1516.13 24.932 1517.89 24.932C1519.43 24.932 1519.97 24.596 1519.97 23.84C1519.97 23.144 1519.56 22.88 1518.54 22.688L1516.57 22.364C1515.22 22.124 1514.26 21.5 1514.26 20.18C1514.26 19.016 1515.22 17.84 1517.71 17.84C1520.07 17.84 1521.13 19.016 1521.13 20.588V20.66H1519.85V20.504C1519.85 19.52 1519.26 19.028 1517.59 19.028C1516.13 19.028 1515.55 19.388 1515.55 20.108C1515.55 20.804 1515.96 21.032 1516.91 21.236L1518.87 21.572C1520.47 21.86 1521.27 22.592 1521.27 23.768C1521.27 24.992 1520.27 26.12 1517.89 26.12Z" fill="black"/>
<path d="M1539.05 23H1537.42V21.14H1539.05V23Z" fill="black"/>
<path d="M1559.33 26H1555.67V17.96H1559.33C1561.83 17.96 1563.4 19.496 1563.4 21.98C1563.4 24.464 1561.83 26 1559.33 26ZM1559.33 19.124H1556.96V24.836H1559.33C1561.19 24.836 1562.03 24.044 1562.03 21.98C1562.03 19.916 1561.19 19.124 1559.33 19.124ZM1567.16 26H1565.87V17.96H1567.16V26ZM1573.23 26.12C1570.83 26.12 1569.61 25.064 1569.61 23.372V23.3H1570.91V23.492C1570.91 24.452 1571.47 24.932 1573.23 24.932C1574.77 24.932 1575.31 24.596 1575.31 23.84C1575.31 23.144 1574.9 22.88 1573.88 22.688L1571.91 22.364C1570.56 22.124 1569.6 21.5 1569.6 20.18C1569.6 19.016 1570.56 17.84 1573.05 17.84C1575.41 17.84 1576.47 19.016 1576.47 20.588V20.66H1575.19V20.504C1575.19 19.52 1574.6 19.028 1572.93 19.028C1571.47 19.028 1570.89 19.388 1570.89 20.108C1570.89 20.804 1571.3 21.032 1572.25 21.236L1574.21 21.572C1575.81 21.86 1576.61 22.592 1576.61 23.768C1576.61 24.992 1575.61 26.12 1573.23 26.12ZM1582.94 26.12C1580.44 26.12 1578.79 24.488 1578.79 21.98C1578.79 19.472 1580.44 17.84 1582.94 17.84C1585.21 17.84 1586.79 19.04 1586.79 20.96V21.128H1585.36V20.96C1585.36 19.736 1584.58 19.076 1582.95 19.076C1581.07 19.076 1580.15 19.976 1580.15 21.98C1580.15 23.984 1581.07 24.872 1582.95 24.872C1584.58 24.872 1585.36 24.224 1585.36 22.988V22.832H1586.79V22.988C1586.79 24.92 1585.22 26.12 1582.94 26.12ZM1592.96 26.12C1590.56 26.12 1589.2 24.848 1589.2 22.664V17.96H1590.48V22.58C1590.48 24.2 1591.2 24.872 1592.96 24.872C1594.73 24.872 1595.45 24.2 1595.45 22.58V17.96H1596.74V22.664C1596.74 24.848 1595.38 26.12 1592.96 26.12ZM1602.76 26.12C1600.36 26.12 1599.14 25.064 1599.14 23.372V23.3H1600.44V23.492C1600.44 24.452 1601 24.932 1602.76 24.932C1604.3 24.932 1604.84 24.596 1604.84 23.84C1604.84 23.144 1604.43 22.88 1603.41 22.688L1601.44 22.364C1600.09 22.124 1599.13 21.5 1599.13 20.18C1599.13 19.016 1600.09 17.84 1602.58 17.84C1604.94 17.84 1606 19.016 1606 20.588V20.66H1604.72V20.504C1604.72 19.52 1604.13 19.028 1602.46 19.028C1601 19.028 1600.42 19.388 1600.42 20.108C1600.42 20.804 1600.83 21.032 1601.78 21.236L1603.74 21.572C1605.34 21.86 1606.14 22.592 1606.14 23.768C1606.14 24.992 1605.14 26.12 1602.76 26.12ZM1611.93 26.12C1609.53 26.12 1608.31 25.064 1608.31 23.372V23.3H1609.6V23.492C1609.6 24.452 1610.17 24.932 1611.93 24.932C1613.47 24.932 1614.01 24.596 1614.01 23.84C1614.01 23.144 1613.6 22.88 1612.58 22.688L1610.61 22.364C1609.25 22.124 1608.29 21.5 1608.29 20.18C1608.29 19.016 1609.25 17.84 1611.75 17.84C1614.1 17.84 1615.17 19.016 1615.17 20.588V20.66H1613.89V20.504C1613.89 19.52 1613.3 19.028 1611.63 19.028C1610.17 19.028 1609.59 19.388 1609.59 20.108C1609.59 20.804 1610 21.032 1610.95 21.236L1612.9 21.572C1614.51 21.86 1615.3 22.592 1615.3 23.768C1615.3 24.992 1614.31 26.12 1611.93 26.12ZM1624.64 26.12C1622.24 26.12 1621.02 25.064 1621.02 23.372V23.3H1622.32V23.492C1622.32 24.452 1622.88 24.932 1624.64 24.932C1626.18 24.932 1626.72 24.596 1626.72 23.84C1626.72 23.144 1626.31 22.88 1625.29 22.688L1623.32 22.364C1621.97 22.124 1621.01 21.5 1621.01 20.18C1621.01 19.016 1621.97 17.84 1624.46 17.84C1626.82 17.84 1627.88 19.016 1627.88 20.588V20.66H1626.6V20.504C1626.6 19.52 1626.01 19.028 1624.34 19.028C1622.88 19.028 1622.3 19.388 1622.3 20.108C1622.3 20.804 1622.71 21.032 1623.66 21.236L1625.62 21.572C1627.22 21.86 1628.02 22.592 1628.02 23.768C1628.02 24.992 1627.02 26.12 1624.64 26.12ZM1634.35 26.12C1631.85 26.12 1630.2 24.488 1630.2 21.98C1630.2 19.472 1631.85 17.84 1634.35 17.84C1636.62 17.84 1638.2 19.04 1638.2 20.96V21.128H1636.77V20.96C1636.77 19.736 1635.99 19.076 1634.36 19.076C1632.48 19.076 1631.56 19.976 1631.56 21.98C1631.56 23.984 1632.48 24.872 1634.36 24.872C1635.99 24.872 1636.77 24.224 1636.77 22.988V22.832H1638.2V22.988C1638.2 24.92 1636.63 26.12 1634.35 26.12ZM1641.49 26H1640.05L1643.64 17.96H1645.47L1649.05 26H1647.59L1646.67 23.912H1642.42L1641.49 26ZM1644.03 20.3L1642.93 22.748H1646.15L1645.06 20.3L1644.59 19.16H1644.49L1644.03 20.3ZM1657.41 26H1651.15V17.96H1652.45V24.836H1657.41V26ZM1666.18 26H1659.74V17.96H1666.18V19.124H1661.04V21.38H1666V22.532H1661.04V24.836H1666.18V26ZM1676.36 26H1675.08V23.228L1671.55 17.96H1673.14L1675.03 20.816L1675.7 21.836H1675.8L1676.46 20.816L1678.34 17.96H1679.94L1676.36 23.252V26ZM1685.89 26.12C1683.37 26.12 1681.7 24.488 1681.7 21.98C1681.7 19.472 1683.37 17.84 1685.89 17.84C1688.43 17.84 1690.09 19.472 1690.09 21.98C1690.09 24.488 1688.43 26.12 1685.89 26.12ZM1685.89 24.872C1687.8 24.872 1688.72 23.984 1688.72 21.98C1688.72 19.976 1687.8 19.076 1685.89 19.076C1683.98 19.076 1683.07 19.976 1683.07 21.98C1683.07 23.984 1683.98 24.872 1685.89 24.872ZM1696.27 26.12C1693.87 26.12 1692.5 24.848 1692.5 22.664V17.96H1693.78V22.58C1693.78 24.2 1694.5 24.872 1696.27 24.872C1698.03 24.872 1698.75 24.2 1698.75 22.58V17.96H1700.05V22.664C1700.05 24.848 1698.68 26.12 1696.27 26.12ZM1703.99 26H1702.69V17.96H1706.87C1708.69 17.96 1709.82 18.824 1709.82 20.324C1709.82 21.656 1708.95 22.472 1707.43 22.556V22.64C1708.06 22.808 1708.35 23.168 1708.63 23.672L1709.98 26H1708.49L1707.21 23.78C1706.85 23.144 1706.47 22.88 1705.47 22.88H1703.99V26ZM1703.99 19.124V21.884H1706.86C1707.94 21.884 1708.48 21.512 1708.48 20.504C1708.48 19.52 1707.94 19.124 1706.86 19.124H1703.99ZM1720.42 26H1715.75V17.96H1720.25C1721.78 17.96 1722.71 18.668 1722.71 19.94C1722.71 20.888 1722.18 21.596 1720.96 21.74V21.824C1722.32 21.98 1723 22.724 1723 23.78C1723 25.16 1722.07 26 1720.42 26ZM1717.03 19.124V21.332H1720.07C1720.97 21.332 1721.42 20.984 1721.42 20.228C1721.42 19.472 1721 19.124 1720.1 19.124H1717.03ZM1717.03 22.4V24.836H1720.27C1721.23 24.836 1721.7 24.476 1721.7 23.6C1721.7 22.76 1721.22 22.4 1720.27 22.4H1717.03ZM1729.05 26.12C1726.65 26.12 1725.29 24.848 1725.29 22.664V17.96H1726.57V22.58C1726.57 24.2 1727.29 24.872 1729.05 24.872C1730.82 24.872 1731.54 24.2 1731.54 22.58V17.96H1732.83V22.664C1732.83 24.848 1731.47 26.12 1729.05 26.12ZM1738.85 26.12C1736.45 26.12 1735.23 25.064 1735.23 23.372V23.3H1736.53V23.492C1736.53 24.452 1737.09 24.932 1738.85 24.932C1740.39 24.932 1740.93 24.596 1740.93 23.84C1740.93 23.144 1740.52 22.88 1739.5 22.688L1737.53 22.364C1736.18 22.124 1735.22 21.5 1735.22 20.18C1735.22 19.016 1736.18 17.84 1738.67 17.84C1741.03 17.84 1742.09 19.016 1742.09 20.588V20.66H1740.81V20.504C1740.81 19.52 1740.22 19.028 1738.55 19.028C1737.09 19.028 1736.51 19.388 1736.51 20.108C1736.51 20.804 1736.92 21.032 1737.87 21.236L1739.83 21.572C1741.43 21.86 1742.23 22.592 1742.23 23.768C1742.23 24.992 1741.23 26.12 1738.85 26.12ZM1745.94 26H1744.65V17.96H1745.94V26ZM1749.94 26H1748.64V17.96H1750.03L1753.63 22.664L1754.68 24.164H1754.77L1754.71 22.712V17.96H1756.01V26H1754.62L1750.99 21.308L1749.99 19.892H1749.89L1749.94 21.284V26ZM1765.14 26H1758.71V17.96H1765.14V19.124H1760.01V21.38H1764.96V22.532H1760.01V24.836H1765.14V26ZM1771.02 26.12C1768.62 26.12 1767.4 25.064 1767.4 23.372V23.3H1768.69V23.492C1768.69 24.452 1769.26 24.932 1771.02 24.932C1772.56 24.932 1773.1 24.596 1773.1 23.84C1773.1 23.144 1772.69 22.88 1771.67 22.688L1769.7 22.364C1768.35 22.124 1767.39 21.5 1767.39 20.18C1767.39 19.016 1768.35 17.84 1770.84 17.84C1773.19 17.84 1774.26 19.016 1774.26 20.588V20.66H1772.98V20.504C1772.98 19.52 1772.39 19.028 1770.72 19.028C1769.26 19.028 1768.68 19.388 1768.68 20.108C1768.68 20.804 1769.09 21.032 1770.04 21.236L1771.99 21.572C1773.6 21.86 1774.39 22.592 1774.39 23.768C1774.39 24.992 1773.4 26.12 1771.02 26.12ZM1780.19 26.12C1777.79 26.12 1776.56 25.064 1776.56 23.372V23.3H1777.86V23.492C1777.86 24.452 1778.42 24.932 1780.19 24.932C1781.72 24.932 1782.26 24.596 1782.26 23.84C1782.26 23.144 1781.85 22.88 1780.83 22.688L1778.87 22.364C1777.51 22.124 1776.55 21.5 1776.55 20.18C1776.55 19.016 1777.51 17.84 1780.01 17.84C1782.36 17.84 1783.43 19.016 1783.43 20.588V20.66H1782.14V20.504C1782.14 19.52 1781.55 19.028 1779.89 19.028C1778.42 19.028 1777.85 19.388 1777.85 20.108C1777.85 20.804 1778.25 21.032 1779.2 21.236L1781.16 21.572C1782.77 21.86 1783.56 22.592 1783.56 23.768C1783.56 24.992 1782.56 26.12 1780.19 26.12ZM1793.48 26.12C1790.96 26.12 1789.29 24.488 1789.29 21.98C1789.29 19.472 1790.96 17.84 1793.48 17.84C1796.02 17.84 1797.68 19.472 1797.68 21.98C1797.68 24.488 1796.02 26.12 1793.48 26.12ZM1793.48 24.872C1795.39 24.872 1796.31 23.984 1796.31 21.98C1796.31 19.976 1795.39 19.076 1793.48 19.076C1791.57 19.076 1790.66 19.976 1790.66 21.98C1790.66 23.984 1791.57 24.872 1793.48 24.872ZM1801.43 26H1800.14V17.96H1804.31C1806.14 17.96 1807.26 18.824 1807.26 20.324C1807.26 21.656 1806.39 22.472 1804.88 22.556V22.64C1805.5 22.808 1805.79 23.168 1806.08 23.672L1807.42 26H1805.93L1804.65 23.78C1804.29 23.144 1803.92 22.88 1802.91 22.88H1801.43V26ZM1801.43 19.124V21.884H1804.3C1805.38 21.884 1805.92 21.512 1805.92 20.504C1805.92 19.52 1805.38 19.124 1804.3 19.124H1801.43ZM1817.38 26H1816.09V23.228L1812.56 17.96H1814.15L1816.04 20.816L1816.72 21.836H1816.81L1817.47 20.816L1819.36 17.96H1820.95L1817.38 23.252V26ZM1826.9 26.12C1824.38 26.12 1822.71 24.488 1822.71 21.98C1822.71 19.472 1824.38 17.84 1826.9 17.84C1829.44 17.84 1831.1 19.472 1831.1 21.98C1831.1 24.488 1829.44 26.12 1826.9 26.12ZM1826.9 24.872C1828.81 24.872 1829.73 23.984 1829.73 21.98C1829.73 19.976 1828.81 19.076 1826.9 19.076C1824.99 19.076 1824.08 19.976 1824.08 21.98C1824.08 23.984 1824.99 24.872 1826.9 24.872ZM1837.28 26.12C1834.88 26.12 1833.51 24.848 1833.51 22.664V17.96H1834.79V22.58C1834.79 24.2 1835.51 24.872 1837.28 24.872C1839.04 24.872 1839.76 24.2 1839.76 22.58V17.96H1841.06V22.664C1841.06 24.848 1839.69 26.12 1837.28 26.12ZM1845 26H1843.71V17.96H1847.88C1849.71 17.96 1850.83 18.824 1850.83 20.324C1850.83 21.656 1849.96 22.472 1848.45 22.556V22.64C1849.07 22.808 1849.36 23.168 1849.65 23.672L1850.99 26H1849.5L1848.22 23.78C1847.86 23.144 1847.49 22.88 1846.48 22.88H1845V26ZM1845 19.124V21.884H1847.87C1848.95 21.884 1849.49 21.512 1849.49 20.504C1849.49 19.52 1848.95 19.124 1847.87 19.124H1845ZM1858.11 26H1856.82V17.96H1858.11V26ZM1864.55 26H1860.89V17.96H1864.55C1867.04 17.96 1868.61 19.496 1868.61 21.98C1868.61 24.464 1867.04 26 1864.55 26ZM1864.55 19.124H1862.17V24.836H1864.55C1866.41 24.836 1867.25 24.044 1867.25 21.98C1867.25 19.916 1866.41 19.124 1864.55 19.124ZM1877.51 26H1871.08V17.96H1877.51V19.124H1872.38V21.38H1877.33V22.532H1872.38V24.836H1877.51V26ZM1880.86 26H1879.42L1883.01 17.96H1884.83L1888.42 26H1886.96L1886.03 23.912H1881.79L1880.86 26ZM1883.39 20.3L1882.3 22.748H1885.52L1884.43 20.3L1883.96 19.16H1883.86L1883.39 20.3ZM1893.89 26.12C1891.49 26.12 1890.27 25.064 1890.27 23.372V23.3H1891.57V23.492C1891.57 24.452 1892.13 24.932 1893.89 24.932C1895.43 24.932 1895.97 24.596 1895.97 23.84C1895.97 23.144 1895.56 22.88 1894.54 22.688L1892.57 22.364C1891.22 22.124 1890.26 21.5 1890.26 20.18C1890.26 19.016 1891.22 17.84 1893.71 17.84C1896.07 17.84 1897.13 19.016 1897.13 20.588V20.66H1895.85V20.504C1895.85 19.52 1895.26 19.028 1893.59 19.028C1892.13 19.028 1891.55 19.388 1891.55 20.108C1891.55 20.804 1891.96 21.032 1892.91 21.236L1894.87 21.572C1896.47 21.86 1897.27 22.592 1897.27 23.768C1897.27 24.992 1896.27 26.12 1893.89 26.12ZM1904.53 26H1903.24V17.96H1905L1907.32 22.616L1908.05 24.284H1908.14L1908.85 22.616L1911.14 17.96H1912.91V26H1911.61V21.068L1911.66 19.904H1911.56L1911.07 21.068L1908.85 25.52H1907.29L1905.07 21.068L1904.58 19.904H1904.48L1904.53 21.068V26ZM1922.04 26H1915.61V17.96H1922.04V19.124H1916.91V21.38H1921.86V22.532H1916.91V24.836H1922.04V26ZM1928.29 26H1924.63V17.96H1928.29C1930.78 17.96 1932.35 19.496 1932.35 21.98C1932.35 24.464 1930.78 26 1928.29 26ZM1928.29 19.124H1925.91V24.836H1928.29C1930.15 24.836 1930.99 24.044 1930.99 21.98C1930.99 19.916 1930.15 19.124 1928.29 19.124ZM1936.11 26H1934.82V17.96H1936.11V26ZM1939.65 26H1938.21L1941.8 17.96H1943.63L1947.21 26H1945.75L1944.83 23.912H1940.58L1939.65 26ZM1942.19 20.3L1941.09 22.748H1944.31L1943.22 20.3L1942.75 19.16H1942.65L1942.19 20.3ZM1957.47 26H1952.81V17.96H1957.31C1958.84 17.96 1959.77 18.668 1959.77 19.94C1959.77 20.888 1959.24 21.596 1958.01 21.74V21.824C1959.38 21.98 1960.05 22.724 1960.05 23.78C1960.05 25.16 1959.13 26 1957.47 26ZM1954.09 19.124V21.332H1957.13C1958.03 21.332 1958.48 20.984 1958.48 20.228C1958.48 19.472 1958.06 19.124 1957.16 19.124H1954.09ZM1954.09 22.4V24.836H1957.33C1958.29 24.836 1958.76 24.476 1958.76 23.6C1958.76 22.76 1958.28 22.4 1957.33 22.4H1954.09ZM1963.69 26H1962.39V17.96H1966.57C1968.39 17.96 1969.52 18.824 1969.52 20.324C1969.52 21.656 1968.64 22.472 1967.13 22.556V22.64C1967.76 22.808 1968.04 23.168 1968.33 23.672L1969.68 26H1968.19L1966.9 23.78C1966.54 23.144 1966.17 22.88 1965.16 22.88H1963.69V26ZM1963.69 19.124V21.884H1966.56C1967.64 21.884 1968.18 21.512 1968.18 20.504C1968.18 19.52 1967.64 19.124 1966.56 19.124H1963.69ZM1972.8 26H1971.36L1974.94 17.96H1976.77L1980.36 26H1978.89L1977.97 23.912H1973.72L1972.8 26ZM1975.33 20.3L1974.24 22.748H1977.45L1976.36 20.3L1975.89 19.16H1975.8L1975.33 20.3ZM1983.75 26H1982.46V17.96H1983.85L1987.45 22.664L1988.49 24.164H1988.59L1988.53 22.712V17.96H1989.82V26H1988.43L1984.81 21.308L1983.8 19.892H1983.7L1983.75 21.284V26ZM1996.25 26H1992.59V17.96H1996.25C1998.75 17.96 2000.32 19.496 2000.32 21.98C2000.32 24.464 1998.75 26 1996.25 26ZM1996.25 19.124H1993.88V24.836H1996.25C1998.11 24.836 1998.95 24.044 1998.95 21.98C1998.95 19.916 1998.11 19.124 1996.25 19.124ZM2004.08 26H2002.79V17.96H2004.08V26ZM2008.08 26H2006.78V17.96H2008.18L2011.78 22.664L2012.82 24.164H2012.92L2012.86 22.712V17.96H2014.15V26H2012.76L2009.14 21.308L2008.13 19.892H2008.03L2008.08 21.284V26ZM2020.55 26.12C2018.18 26.12 2016.61 24.488 2016.61 21.98C2016.61 19.472 2018.3 17.84 2020.87 17.84C2023.15 17.84 2024.73 18.992 2024.73 20.852V20.948H2023.31V20.852C2023.31 19.7 2022.5 19.076 2020.83 19.076C2018.9 19.076 2017.98 19.976 2017.98 21.98C2017.98 23.984 2018.89 24.872 2020.77 24.872C2022.69 24.872 2023.45 24.344 2023.45 22.988V22.88H2020.47V21.896H2024.73V26H2023.56V24.26H2023.47C2023.14 25.436 2022.12 26.12 2020.55 26.12Z" fill="black"/>
<path d="M2043.05 23H2041.42V21.14H2043.05V23Z" fill="black"/>
</g>
<defs>
<clipPath id="clip0_471_200">
<rect width="2050" height="44" fill="white"/>
</clipPath>
</defs>
</svg>
