<svg width="152" height="26" viewBox="0 0 152 26" fill="none" xmlns="http://www.w3.org/2000/svg">
<g clip-path="url(#clip0_462_165)">
<path fill-rule="evenodd" clip-rule="evenodd" d="M6.28593 12.9991C2.82868 19.9165 0 25.6165 0 25.6658C0 25.7151 5.7 25.7555 12.6667 25.7555C19.6333 25.7555 25.3333 25.7181 25.3333 25.6724C25.3333 25.501 12.7479 0.422119 12.6619 0.422119C12.6124 0.422119 9.74317 6.08174 6.28593 12.9991ZM68.8131 4.26476C68.7652 4.31254 68.7261 8.37741 68.7261 13.2978V22.2439H70.5454H72.3647L72.3326 13.2456L72.3003 4.2472L70.6002 4.21246C69.6652 4.1934 68.8609 4.21685 68.8131 4.26476ZM74.4001 4.28846C74.2756 4.36747 74.2492 6.25067 74.2747 13.2848L74.3069 22.1812L76.0941 22.2159L77.8812 22.2508V13.2176V4.1845L76.2195 4.18638C75.3055 4.18751 74.4868 4.23341 74.4001 4.28846ZM135.571 13.465V22.2439H137.389H139.208L139.209 18.4502C139.21 14.7252 139.216 14.6449 139.507 14.0191C139.749 13.4996 139.911 13.3316 140.382 13.1099C141.468 12.5998 142.61 12.8528 143.049 13.7002C143.262 14.1122 143.287 14.5342 143.322 18.1993L143.359 22.2439H145.176H146.993L146.947 18.0112C146.919 15.3468 146.847 13.548 146.753 13.1563C146.392 11.6423 145.584 10.7599 144.176 10.3425C142.48 9.83972 140.585 10.0855 139.659 10.9289L139.208 11.3392V8.01259V4.68615H137.389H135.571V13.465ZM13.6295 7.10034C14.1233 8.08332 14.7794 9.39539 15.0875 10.0162C15.3955 10.637 16.5616 12.9698 17.6788 15.2002C18.796 17.4307 19.6859 19.2796 19.6565 19.309C19.6271 19.3385 17.507 19.3477 14.9452 19.3296L10.2872 19.2967L10.453 18.9832C10.5442 18.8107 10.7751 18.3733 10.9661 18.0112L11.3135 17.3528H13.8713C15.278 17.3528 16.429 17.3274 16.429 17.2961C16.429 17.265 15.6063 15.6002 14.6008 13.5965C13.4925 11.3882 12.7023 9.95347 12.5942 9.95347C12.4961 9.95347 12.4158 10.0162 12.4158 10.0929C12.4158 10.1696 12.0996 10.861 11.7129 11.6292C10.8457 13.3525 10.0502 14.9515 9.36443 16.3495C9.07686 16.9358 8.80371 17.4444 8.75743 17.4795C8.71115 17.5147 8.63516 17.6958 8.58838 17.8819C8.54172 18.068 8.42434 18.2861 8.32764 18.3663C8.23095 18.4465 8.15182 18.562 8.15182 18.623C8.15182 18.7848 6.97607 21.1707 6.87336 21.2174C6.82558 21.2391 6.81742 21.3378 6.85542 21.4369C6.91437 21.5903 7.95755 21.6168 13.9214 21.6168H20.9182L21.37 22.5559C21.6185 23.0724 21.8218 23.5239 21.8218 23.5592C21.8218 23.5946 17.702 23.6234 12.6667 23.6234C7.63135 23.6234 3.51155 23.5877 3.51155 23.5442C3.51155 23.3959 12.5833 5.31321 12.6576 5.31321C12.6983 5.31321 13.1356 6.11735 13.6295 7.10034ZM47.0297 8.50471V10.1911L46.3713 10.2291L45.7129 10.267V11.772V13.2769L46.3399 13.3396L46.967 13.4023L47.0386 16.2868C47.1275 19.8739 47.2527 20.4272 48.1829 21.3457C48.7559 21.9117 48.8508 21.9646 49.7984 22.2468C50.9014 22.5752 51.9375 22.5395 52.83 22.1419L53.4257 21.8766V20.3569V18.8373L52.9864 19.1088C52.4904 19.4153 51.5242 19.4773 51.2169 19.2222C50.7282 18.8168 50.6667 18.44 50.6667 15.8583V13.3481L52.0149 13.3125L53.363 13.2769V11.772V10.267L52.0149 10.2314L50.6667 10.1958V8.50696V6.81816H48.8482H47.0297V8.50471ZM101.295 6.89842C101.247 6.94633 101.208 7.70445 101.208 8.58322V10.1811L100.512 10.224C100.129 10.2477 99.7203 10.2286 99.6029 10.1817C98.8423 9.87797 97.1132 10.2305 96.3296 10.8492L96.0033 11.1068L95.9406 10.6869L95.8779 10.267L94.3729 10.2306C93.5452 10.2107 92.7409 10.2259 92.5858 10.2644L92.3036 10.3345V16.2892V22.2439H94.1101H95.9166L95.9599 18.3248C96.0027 14.4592 96.0074 14.3985 96.3033 13.8819C96.8083 13.0006 98.2029 12.5908 99.2328 13.0211C99.7417 13.2338 99.822 13.1865 99.8462 12.6602C99.8619 12.3206 99.8733 12.3346 99.9403 12.7753C100.015 13.2695 100.025 13.2774 100.593 13.3144L101.17 13.3518L101.245 16.1362C101.309 18.5297 101.359 19.043 101.597 19.7938C101.75 20.2742 101.922 20.7257 101.979 20.7971C102.036 20.8686 102.224 21.1042 102.397 21.3205C102.963 22.0281 104.635 22.58 105.866 22.4656C106.235 22.4313 106.806 22.2847 107.134 22.1398L107.729 21.8766V20.3569V18.8373L107.307 19.0983C107.015 19.2786 106.676 19.3592 106.21 19.3585C105.587 19.3578 105.513 19.3257 105.252 18.9432C104.982 18.5464 104.97 18.4184 104.97 15.9341V13.3396L106.193 13.3377C106.866 13.3366 107.488 13.2898 107.577 13.2335C107.696 13.1578 107.729 12.7606 107.702 11.6992L107.667 10.267L106.322 10.2314L104.978 10.1959L104.943 8.53832L104.908 6.88087L103.145 6.84625C102.175 6.82719 101.343 6.85064 101.295 6.89842ZM38.6271 10.3251C36.5697 11.0122 35.6256 12.1272 35.6199 13.8766C35.6167 14.8693 35.8092 15.403 36.3893 16.011C37.1122 16.7685 39.1633 17.6981 40.5552 17.899C41.9756 18.104 41.6994 19.3594 40.234 19.3594C39.5279 19.3594 38.8716 19.0461 38.0784 18.3303L37.5633 17.8655L37.1989 18.2049C36.6175 18.7461 35.3071 20.1205 35.2669 20.2314C35.2202 20.3596 36.6651 21.4831 37.2475 21.7715C38.0414 22.1646 39.3044 22.4915 40.0366 22.4931C40.4324 22.494 41.1917 22.3752 41.724 22.2292C43.2537 21.8096 44.0883 21.1674 44.6025 20.0142C45.2807 18.4933 44.7487 16.8484 43.3205 16.0502C42.6627 15.6826 41.0213 15.0954 40.6513 15.0954C40.5118 15.0954 40.3654 15.0433 40.3262 14.9796C40.2868 14.9159 40.0718 14.8252 39.8485 14.778C39.3659 14.6759 38.8779 14.2616 38.8779 13.9539C38.8779 13.613 39.4791 13.2142 39.9932 13.2142C40.5254 13.2142 41.5162 13.7091 42.024 14.2285C42.2204 14.4294 42.4161 14.5937 42.4592 14.5937C42.5022 14.5937 43.0524 14.0778 43.6818 13.4471L44.8263 12.3003L44.2274 11.7582C43.8979 11.4599 43.2791 11.0477 42.8522 10.8423C41.2147 10.0541 39.9149 9.8949 38.6271 10.3251ZM60.198 10.2092C58.8674 10.5167 58.0476 10.8771 57.4107 11.4346C57.0069 11.788 56.9641 11.8328 56.5527 12.3312C56.1957 12.7635 55.5961 14.055 55.4422 14.7227C55.2758 15.445 55.2762 17.1302 55.443 17.8545C55.7935 19.3762 57.067 21.0594 58.3424 21.6864C60.9442 22.9655 64.4024 22.6371 66.1427 20.9456C66.46 20.6374 66.7195 20.3275 66.7195 20.2571C66.7195 20.1386 66.5122 19.9285 64.9722 18.4865L64.4164 17.9661L64.1244 18.3392C63.9639 18.5444 63.572 18.8579 63.2536 19.0359C62.7769 19.3022 62.511 19.3594 61.7474 19.3594C60.9728 19.3594 60.7378 19.3075 60.3203 19.0439C59.7233 18.6671 59.0693 17.8067 59.0693 17.3983V17.1054L63.302 17.0723L67.5347 17.0393L67.4876 15.9171C67.3924 13.6464 66.3834 11.9082 64.5485 10.8544C63.4727 10.2367 61.4056 9.93002 60.198 10.2092ZM83.3366 10.3212C82.4189 10.5933 81.4054 11.1291 80.7521 11.6877C80.0346 12.3011 80.0413 12.3155 81.3759 13.0445C82.8937 13.8735 82.7735 13.8431 83.269 13.5231C83.8207 13.1668 84.8282 13.0248 85.5075 13.2078C86.0472 13.353 86.5347 13.8404 86.5347 14.2344C86.5347 14.4396 86.4306 14.4683 85.6881 14.4687C82.1547 14.4702 80.2171 15.4736 79.5913 17.6261C79.1653 19.0919 79.4483 20.3158 80.4437 21.3112C81.05 21.9176 81.1689 21.9785 82.2305 22.2277C82.8559 22.3746 83.5803 22.4947 83.8403 22.4947C84.4513 22.4947 85.9586 22.0457 86.1592 21.804C86.4017 21.5117 86.6601 21.5787 86.6601 21.9338V22.2508L88.4472 22.2159L90.2343 22.1812L90.2694 18.1053C90.3102 13.3642 90.2279 12.7474 89.4178 11.7224C88.3212 10.3352 85.4897 9.68271 83.3366 10.3212ZM114.502 10.2092C112.779 10.6072 112.136 10.9539 111.02 12.0855C110.85 12.2579 110.481 12.8787 110.201 13.465C109.718 14.4725 109.687 14.6073 109.636 15.921C109.573 17.4992 109.747 18.3233 110.385 19.4848C110.859 20.3475 111.879 21.3255 112.761 21.7644C113.58 22.1719 115.089 22.4955 116.158 22.4926C117.059 22.4901 118.482 22.1527 119.338 21.7386C119.939 21.4474 121.023 20.4896 121.023 20.2495C121.023 20.1748 120.868 19.9749 120.678 19.8051C120.488 19.6354 119.97 19.1567 119.526 18.7414L118.719 17.9863L118.335 18.4014C117.656 19.1342 117.115 19.3594 116.033 19.3594C115.163 19.3594 115.017 19.3223 114.504 18.9711C113.799 18.4882 113.502 18.0981 113.411 17.5375L113.34 17.102H117.558H121.776V16.0365C121.776 13.8661 120.665 11.87 118.912 10.8904C117.723 10.2257 115.749 9.92087 114.502 10.2092ZM128.046 10.1603C126.711 10.4279 125.428 11.0969 124.581 11.9661C123.239 13.3439 122.842 14.3312 122.842 16.2868C122.842 17.4077 122.893 17.7987 123.116 18.372C123.713 19.9046 124.69 20.9994 126.158 21.7806C126.732 22.086 128.444 22.4873 129.19 22.4915C129.844 22.4951 131.466 22.1206 131.937 21.8571C132.733 21.4115 133.529 20.86 133.809 20.56L134.116 20.2307L133.495 19.6565C132.467 18.7054 131.554 17.9411 131.509 17.9934C131.486 18.0204 131.399 18.1714 131.317 18.3286C131.235 18.486 130.937 18.7824 130.655 18.9871C130.19 19.3239 130.048 19.3594 129.166 19.3594C128.259 19.3594 128.154 19.3309 127.658 18.9518C127.365 18.7276 126.984 18.2903 126.811 17.9799C126.541 17.4949 126.497 17.2567 126.497 16.2868C126.497 15.321 126.542 15.0781 126.806 14.6036C127.297 13.7229 127.91 13.3027 128.796 13.2387C129.893 13.1594 130.365 13.2881 130.914 13.8158C131.179 14.0711 131.424 14.3649 131.458 14.4683C131.516 14.645 132.167 14.1343 133.747 12.6725L134.129 12.3191L133.519 11.7618C132.948 11.2396 131.943 10.686 130.931 10.3364C130.458 10.1732 128.56 10.0572 128.046 10.1603ZM62.9012 13.5166C63.0108 13.6262 63.1387 13.7162 63.1855 13.7166C63.2854 13.7176 63.7096 14.4357 63.7096 14.6039C63.7096 14.6697 62.7408 14.7191 61.4521 14.7191C60.1635 14.7191 59.1947 14.6697 59.1947 14.6039C59.1947 14.3835 59.6054 13.7749 59.9082 13.5465C60.5078 13.0943 62.4593 13.0747 62.9012 13.5166ZM117.294 13.61C117.584 13.8966 118.013 14.5176 118.013 14.6521C118.013 14.6889 116.974 14.7191 115.705 14.7191C113.458 14.7191 113.398 14.7125 113.462 14.4683C113.498 14.3304 113.574 14.2175 113.63 14.2175C113.686 14.2175 113.766 14.1188 113.807 13.998C114.097 13.1417 116.542 12.8694 117.294 13.61ZM86.6601 17.8881C86.6601 18.7148 86.2044 19.2918 85.3572 19.5381C84.5425 19.7749 84.2752 19.7832 83.8128 19.586C83.034 19.2541 82.7991 18.4934 83.2843 17.8743C83.65 17.4075 83.7921 17.3716 85.3119 17.3616L86.6601 17.3528V17.8881Z" fill="#D2F75A"/>
</g>
<g clip-path="url(#clip1_462_165)">
<path fill-rule="evenodd" clip-rule="evenodd" d="M8.29252 12.9991C4.83527 19.9165 2.00659 25.6165 2.00659 25.6658C2.00659 25.7151 7.70659 25.7555 14.6733 25.7555C21.6399 25.7555 27.3399 25.7181 27.3399 25.6724C27.3399 25.501 14.7545 0.422119 14.6685 0.422119C14.619 0.422119 11.7498 6.08174 8.29252 12.9991ZM70.8197 4.26476C70.7718 4.31254 70.7327 8.37741 70.7327 13.2978V22.2439H72.552H74.3713L74.3392 13.2456L74.3069 4.2472L72.6068 4.21246C71.6717 4.1934 70.8675 4.21685 70.8197 4.26476ZM76.4067 4.28846C76.2822 4.36747 76.2558 6.25067 76.2813 13.2848L76.3135 22.1812L78.1006 22.2159L79.8878 22.2508V13.2176V4.1845L78.2261 4.18638C77.3121 4.18751 76.4934 4.23341 76.4067 4.28846ZM137.578 13.465V22.2439H139.396H141.215L141.216 18.4502C141.217 14.7252 141.222 14.6449 141.514 14.0191C141.756 13.4996 141.917 13.3316 142.389 13.1099C143.474 12.5998 144.617 12.8528 145.055 13.7002C145.268 14.1122 145.294 14.5342 145.328 18.1993L145.366 22.2439H147.183H149L148.954 18.0112C148.925 15.3468 148.853 13.548 148.76 13.1563C148.399 11.6423 147.591 10.7599 146.183 10.3425C144.486 9.83972 142.592 10.0855 141.665 10.9289L141.215 11.3392V8.01259V4.68615H139.396H137.578V13.465ZM15.6361 7.10034C16.1299 8.08332 16.786 9.39539 17.0941 10.0162C17.4021 10.637 18.5682 12.9698 19.6854 15.2002C20.8025 17.4307 21.6925 19.2796 21.6631 19.309C21.6337 19.3385 19.5136 19.3477 16.9518 19.3296L12.2938 19.2967L12.4596 18.9832C12.5508 18.8107 12.7817 18.3733 12.9727 18.0112L13.3201 17.3528H15.8778C17.2846 17.3528 18.4356 17.3274 18.4356 17.2961C18.4356 17.265 17.6129 15.6002 16.6074 13.5965C15.4991 11.3882 14.7089 9.95347 14.6008 9.95347C14.5027 9.95347 14.4224 10.0162 14.4224 10.0929C14.4224 10.1696 14.1061 10.861 13.7195 11.6292C12.8523 13.3525 12.0568 14.9515 11.371 16.3495C11.0835 16.9358 10.8103 17.4444 10.764 17.4795C10.7177 17.5147 10.6417 17.6958 10.595 17.8819C10.5483 18.068 10.4309 18.2861 10.3342 18.3663C10.2375 18.4465 10.1584 18.562 10.1584 18.623C10.1584 18.7848 8.98266 21.1707 8.87995 21.2174C8.83217 21.2391 8.82402 21.3378 8.86202 21.4369C8.92096 21.5903 9.96414 21.6168 15.928 21.6168H22.9248L23.3766 22.5559C23.6251 23.0724 23.8284 23.5239 23.8284 23.5592C23.8284 23.5946 19.7086 23.6234 14.6733 23.6234C9.63794 23.6234 5.51814 23.5877 5.51814 23.5442C5.51814 23.3959 14.5899 5.31321 14.6642 5.31321C14.7049 5.31321 15.1422 6.11735 15.6361 7.10034ZM49.0363 8.50471V10.1911L48.3779 10.2291L47.7195 10.267V11.772V13.2769L48.3465 13.3396L48.9736 13.4023L49.0452 16.2868C49.1341 19.8739 49.2593 20.4272 50.1895 21.3457C50.7625 21.9117 50.8574 21.9646 51.805 22.2468C52.908 22.5752 53.9441 22.5395 54.8366 22.1419L55.4323 21.8766V20.3569V18.8373L54.993 19.1088C54.497 19.4153 53.5308 19.4773 53.2234 19.2222C52.7348 18.8168 52.6733 18.44 52.6733 15.8583V13.3481L54.0214 13.3125L55.3696 13.2769V11.772V10.267L54.0214 10.2314L52.6733 10.1958V8.50696V6.81816H50.8548H49.0363V8.50471ZM103.301 6.89842C103.254 6.94633 103.215 7.70445 103.215 8.58322V10.1811L102.519 10.224C102.136 10.2477 101.727 10.2286 101.609 10.1817C100.849 9.87797 99.1198 10.2305 98.3362 10.8492L98.0099 11.1068L97.9472 10.6869L97.8845 10.267L96.3795 10.2306C95.5518 10.2107 94.7475 10.2259 94.5924 10.2644L94.3102 10.3345V16.2892V22.2439H96.1167H97.9232L97.9665 18.3248C98.0093 14.4592 98.014 14.3985 98.3099 13.8819C98.8149 13.0006 100.209 12.5908 101.239 13.0211C101.748 13.2338 101.829 13.1865 101.853 12.6602C101.868 12.3206 101.88 12.3346 101.947 12.7753C102.022 13.2695 102.031 13.2774 102.6 13.3144L103.176 13.3518L103.251 16.1362C103.316 18.5297 103.365 19.043 103.604 19.7938C103.757 20.2742 103.928 20.7257 103.985 20.7971C104.042 20.8686 104.23 21.1042 104.403 21.3205C104.969 22.0281 106.641 22.58 107.872 22.4656C108.242 22.4313 108.813 22.2847 109.14 22.1398L109.736 21.8766V20.3569V18.8373L109.314 19.0983C109.022 19.2786 108.682 19.3592 108.216 19.3585C107.593 19.3578 107.519 19.3257 107.259 18.9432C106.989 18.5464 106.977 18.4184 106.977 15.9341V13.3396L108.2 13.3377C108.872 13.3366 109.495 13.2898 109.583 13.2335C109.703 13.1578 109.735 12.7606 109.709 11.6992L109.673 10.267L108.329 10.2314L106.984 10.1959L106.949 8.53832L106.914 6.88087L105.151 6.84625C104.182 6.82719 103.349 6.85064 103.301 6.89842ZM40.6337 10.3251C38.5763 11.0122 37.6322 12.1272 37.6265 13.8766C37.6233 14.8693 37.8158 15.403 38.3959 16.011C39.1188 16.7685 41.1699 17.6981 42.5617 17.899C43.9822 18.104 43.706 19.3594 42.2406 19.3594C41.5345 19.3594 40.8782 19.0461 40.085 18.3303L39.5699 17.8655L39.2055 18.2049C38.624 18.7461 37.3137 20.1205 37.2735 20.2314C37.2268 20.3596 38.6717 21.4831 39.2541 21.7715C40.048 22.1646 41.311 22.4915 42.0432 22.4931C42.439 22.494 43.1983 22.3752 43.7306 22.2292C45.2602 21.8096 46.0949 21.1674 46.6091 20.0142C47.2873 18.4933 46.7553 16.8484 45.3271 16.0502C44.6693 15.6826 43.0279 15.0954 42.6579 15.0954C42.5184 15.0954 42.372 15.0433 42.3327 14.9796C42.2934 14.9159 42.0784 14.8252 41.855 14.778C41.3725 14.6759 40.8845 14.2616 40.8845 13.9539C40.8845 13.613 41.4857 13.2142 41.9998 13.2142C42.532 13.2142 43.5228 13.7091 44.0306 14.2285C44.227 14.4294 44.4227 14.5937 44.4658 14.5937C44.5088 14.5937 45.059 14.0778 45.6884 13.4471L46.8329 12.3003L46.234 11.7582C45.9045 11.4599 45.2857 11.0477 44.8588 10.8423C43.2213 10.0541 41.9215 9.8949 40.6337 10.3251ZM62.2046 10.2092C60.874 10.5167 60.0542 10.8771 59.4173 11.4346C59.0135 11.788 58.9707 11.8328 58.5592 12.3312C58.2023 12.7635 57.6027 14.055 57.4488 14.7227C57.2824 15.445 57.2828 17.1302 57.4496 17.8545C57.8001 19.3762 59.0736 21.0594 60.349 21.6864C62.9508 22.9655 66.4089 22.6371 68.1493 20.9456C68.4666 20.6374 68.7261 20.3275 68.7261 20.2571C68.7261 20.1386 68.5188 19.9285 66.9788 18.4865L66.423 17.9661L66.131 18.3392C65.9705 18.5444 65.5786 18.8579 65.2602 19.0359C64.7835 19.3022 64.5176 19.3594 63.754 19.3594C62.9794 19.3594 62.7444 19.3075 62.3269 19.0439C61.7299 18.6671 61.0759 17.8067 61.0759 17.3983V17.1054L65.3086 17.0723L69.5412 17.0393L69.4942 15.9171C69.399 13.6464 68.39 11.9082 66.555 10.8544C65.4793 10.2367 63.4122 9.93002 62.2046 10.2092ZM85.3432 10.3212C84.4255 10.5933 83.412 11.1291 82.7587 11.6877C82.0412 12.3011 82.0479 12.3155 83.3825 13.0445C84.9003 13.8735 84.7801 13.8431 85.2756 13.5231C85.8273 13.1668 86.8348 13.0248 87.5141 13.2078C88.0538 13.353 88.5412 13.8404 88.5412 14.2344C88.5412 14.4396 88.4371 14.4683 87.6947 14.4687C84.1613 14.4702 82.2237 15.4736 81.5979 17.6261C81.1719 19.0919 81.4549 20.3158 82.4503 21.3112C83.0566 21.9176 83.1755 21.9785 84.2371 22.2277C84.8625 22.3746 85.5869 22.4947 85.8469 22.4947C86.4579 22.4947 87.9652 22.0457 88.1658 21.804C88.4083 21.5117 88.6667 21.5787 88.6667 21.9338V22.2508L90.4538 22.2159L92.2409 22.1812L92.276 18.1053C92.3168 13.3642 92.2345 12.7474 91.4244 11.7224C90.3277 10.3352 87.4963 9.68271 85.3432 10.3212ZM116.508 10.2092C114.786 10.6072 114.143 10.9539 113.027 12.0855C112.856 12.2579 112.488 12.8787 112.207 13.465C111.725 14.4725 111.694 14.6073 111.642 15.921C111.58 17.4992 111.753 18.3233 112.392 19.4848C112.866 20.3475 113.885 21.3255 114.767 21.7644C115.587 22.1719 117.096 22.4955 118.165 22.4926C119.066 22.4901 120.489 22.1527 121.344 21.7386C121.946 21.4474 123.03 20.4896 123.03 20.2495C123.03 20.1748 122.875 19.9749 122.685 19.8051C122.495 19.6354 121.977 19.1567 121.533 18.7414L120.726 17.9863L120.342 18.4014C119.663 19.1342 119.121 19.3594 118.04 19.3594C117.17 19.3594 117.024 19.3223 116.511 18.9711C115.806 18.4882 115.508 18.0981 115.417 17.5375L115.347 17.102H119.564H123.782V16.0365C123.782 13.8661 122.672 11.87 120.919 10.8904C119.73 10.2257 117.756 9.92087 116.508 10.2092ZM130.053 10.1603C128.718 10.4279 127.434 11.0969 126.588 11.9661C125.246 13.3439 124.848 14.3312 124.848 16.2868C124.848 17.4077 124.9 17.7987 125.123 18.372C125.719 19.9046 126.696 20.9994 128.165 21.7806C128.739 22.086 130.451 22.4873 131.197 22.4915C131.851 22.4951 133.472 22.1206 133.943 21.8571C134.739 21.4115 135.536 20.86 135.815 20.56L136.123 20.2307L135.502 19.6565C134.474 18.7054 133.561 17.9411 133.516 17.9934C133.492 18.0204 133.406 18.1714 133.324 18.3286C133.242 18.486 132.944 18.7824 132.661 18.9871C132.196 19.3239 132.054 19.3594 131.172 19.3594C130.266 19.3594 130.161 19.3309 129.665 18.9518C129.371 18.7276 128.99 18.2903 128.818 17.9799C128.548 17.4949 128.504 17.2567 128.504 16.2868C128.504 15.321 128.549 15.0781 128.813 14.6036C129.304 13.7229 129.916 13.3027 130.803 13.2387C131.899 13.1594 132.372 13.2881 132.92 13.8158C133.186 14.0711 133.431 14.3649 133.465 14.4683C133.523 14.645 134.174 14.1343 135.753 12.6725L136.135 12.3191L135.526 11.7618C134.955 11.2396 133.949 10.686 132.937 10.3364C132.465 10.1732 130.566 10.0572 130.053 10.1603ZM64.9078 13.5166C65.0174 13.6262 65.1453 13.7162 65.1921 13.7166C65.292 13.7176 65.7162 14.4357 65.7162 14.6039C65.7162 14.6697 64.7473 14.7191 63.4587 14.7191C62.1701 14.7191 61.2013 14.6697 61.2013 14.6039C61.2013 14.3835 61.612 13.7749 61.9148 13.5465C62.5144 13.0943 64.4659 13.0747 64.9078 13.5166ZM119.3 13.61C119.591 13.8966 120.02 14.5176 120.02 14.6521C120.02 14.6889 118.981 14.7191 117.711 14.7191C115.465 14.7191 115.405 14.7125 115.469 14.4683C115.505 14.3304 115.58 14.2175 115.636 14.2175C115.693 14.2175 115.772 14.1188 115.813 13.998C116.103 13.1417 118.549 12.8694 119.3 13.61ZM88.6667 17.8881C88.6667 18.7148 88.211 19.2918 87.3637 19.5381C86.5491 19.7749 86.2818 19.7832 85.8194 19.586C85.0406 19.2541 84.8057 18.4934 85.2909 17.8743C85.6566 17.4075 85.7987 17.3716 87.3185 17.3616L88.6667 17.3528V17.8881Z" fill="black"/>
</g>
<defs>
<clipPath id="clip0_462_165">
<rect width="34.2376" height="25.3333" fill="white" transform="translate(0 0.422119)"/>
</clipPath>
<clipPath id="clip1_462_165">
<rect width="122.277" height="25.3333" fill="white" transform="translate(29.7227 0.422119)"/>
</clipPath>
</defs>
</svg>
